<svg xmlns="http://www.w3.org/2000/svg" width="18" height="14" viewBox="0 0 18 14">
    <g fill="none" fill-rule="evenodd">
        <path fill="#1BCFFC" d="M13.644 4.065l.027-.01L18 14H7.15C3.202 14 0 10.866 0 7s3.201-7 7.15-7c2.88 0 5.36 1.665 6.494 4.065z"/>
        <path fill="#FFF" fill-rule="nonzero" d="M10.029 9.91c-.312.345-.753.613-1.322.804-.57.19-1.2.286-1.893.286-.728 0-1.366-.147-1.914-.441a3.042 3.042 0 0 1-1.27-1.28c-.298-.56-.45-1.218-.459-1.974v-.53c0-.777.142-1.45.425-2.018a2.988 2.988 0 0 1 1.223-1.305C5.352 3.15 5.977 3 6.692 3c.997 0 1.776.22 2.338.66.562.44.895 1.082.999 1.923H8.343c-.077-.446-.247-.772-.51-.979-.264-.206-.627-.31-1.089-.31-.588 0-1.037.205-1.345.615-.307.41-.463 1.02-.467 1.829v.497c0 .817.167 1.433.502 1.85.335.418.825.626 1.472.626.65 0 1.114-.128 1.391-.385V7.984H6.721V6.802h3.308V9.91z"/>
    </g>
</svg>
