<svg xmlns="http://www.w3.org/2000/svg" width="32" height="32" viewBox="0 0 32 32">
    <g fill="none" fill-rule="evenodd">
        <path fill="#FFF" fill-opacity="0" d="M0 0h32v32H0z"/>
        <path fill="#483EE8" d="M9.002 15A1.993 1.993 0 0 0 11 13.002V8.998A2 2 0 0 0 9.002 7H6.998A1.993 1.993 0 0 0 5 8.998v4.004A2 2 0 0 0 6.998 15h2.004zm0 10A1.993 1.993 0 0 0 11 23.002v-4.004A2 2 0 0 0 9.002 17H6.998A1.993 1.993 0 0 0 5 18.998v4.004A2 2 0 0 0 6.998 25h2.004zm8 0A1.993 1.993 0 0 0 19 23.002v-4.004A2 2 0 0 0 17.002 17h-2.004A1.993 1.993 0 0 0 13 18.998v4.004A2 2 0 0 0 14.998 25h2.004zm8 0A1.993 1.993 0 0 0 27 23.002v-4.004A2 2 0 0 0 25.002 17h-2.004A1.993 1.993 0 0 0 21 18.998v4.004A2 2 0 0 0 22.998 25h2.004zm-8-10A1.993 1.993 0 0 0 19 13.002V8.998A2 2 0 0 0 17.002 7h-2.004A1.993 1.993 0 0 0 13 8.998v4.004A2 2 0 0 0 14.998 15h2.004zM21 13.002A2 2 0 0 0 22.998 15h2.004A1.993 1.993 0 0 0 27 13.002V8.998A2 2 0 0 0 25.002 7h-2.004A1.993 1.993 0 0 0 21 8.998v4.004z"/>
    </g>
</svg>
