<?xml version="1.0" encoding="utf-8"?>
<!-- Generator: Adobe Illustrator 23.0.5, SVG Export Plug-In . SVG Version: 6.00 Build 0)  -->
<svg version="1.1" id="Layer_1" xmlns="http://www.w3.org/2000/svg" xmlns:xlink="http://www.w3.org/1999/xlink" x="0px" y="0px"
	 viewBox="0 0 24 24" style="enable-background:new 0 0 24 24;" xml:space="preserve">
<style type="text/css">
	.st0{fill:#4138D1;}
</style>
<g>
	<g>
		<path class="st0" d="M23.6,20.4c-0.1-0.1-2.2-5-3.7-8.5c-1-2.3-1.7-3.6-2-4.2c-1.4-3.1-4.7-5.1-8.5-5.1C4.2,2.6,0,6.8,0,12
			c0,5.2,4.2,9.4,9.3,9.4H24L23.6,20.4z M21.9,20H9.3c-4.4,0-8-3.6-8-8c0-4.4,3.6-8,8-8c3.3,0,6.1,1.7,7.3,4.3l0.2,0.5
			c0.4,0.8,1.1,2.1,1.7,3.7C19.6,14.9,21.1,18.2,21.9,20z"/>
		<g>
			<path class="st0" d="M9.8,7.7h1.8v6.1c0,0.5-0.1,1.1-0.4,1.4c-0.2,0.4-0.6,0.8-1.1,1s-1,0.4-1.5,0.4c-0.9,0-1.6-0.2-2.2-0.7
				c-0.5-0.4-0.8-1.2-0.8-2h1.8c0,0.4,0.1,0.7,0.3,1c0.2,0.2,0.5,0.3,0.9,0.3c0.4,0,0.6-0.1,0.8-0.4c0.2-0.2,0.3-0.6,0.3-1L9.8,7.7
				L9.8,7.7z"/>
		</g>
	</g>
</g>
</svg>
