<?xml version="1.0" encoding="utf-8"?>
<!-- Generator: Adobe Illustrator 23.0.5, SVG Export Plug-In . SVG Version: 6.00 Build 0)  -->
<svg version="1.1" id="Layer_1" xmlns="http://www.w3.org/2000/svg" xmlns:xlink="http://www.w3.org/1999/xlink" x="0px" y="0px"
	 viewBox="0 0 22 22" style="enable-background:new 0 0 22 22;" xml:space="preserve">
<style type="text/css">
	.st0{fill:#FFFFFF;}
</style>
<g>
	<path class="st0" d="M21.5,18.4L21.5,18.4L21.5,18.4c-0.2-0.3-2.1-4.9-3.3-7.6c-0.7-1.7-1.3-2.8-1.6-3.4l-0.2-0.3
		c-1.3-2.8-4.3-4.7-7.8-4.7C3.9,2.4,0,6.2,0,11c0,4.8,3.8,8.6,8.5,8.6H22L21.5,18.4z M19.4,17.9H8.5c-3.8,0-6.9-3.1-6.9-6.9
		s3.1-6.9,6.9-6.9c2.8,0,5.3,1.4,6.3,3.7L15,8.2l0.2,0.4c0.4,0.7,0.9,1.7,1.3,2.9C17.4,13.5,18.7,16.2,19.4,17.9z"/>
	<g>
		<path class="st0" d="M8.9,7.1h1.7v5.6c0,0.5-0.1,1-0.4,1.3c-0.2,0.4-0.6,0.7-1,0.9c-0.5,0.2-0.9,0.4-1.4,0.4c-0.8,0-1.5-0.2-2-0.6
			c-0.5-0.4-0.7-1.1-0.7-1.8h1.7c0,0.4,0.1,0.6,0.3,0.9c0.2,0.2,0.5,0.3,0.8,0.3c0.4,0,0.6-0.1,0.7-0.4c0.2-0.2,0.3-0.6,0.3-0.9
			L8.9,7.1L8.9,7.1z"/>
	</g>
</g>
</svg>
