<?xml version="1.0" encoding="utf-8"?>
<!-- Generator: Adobe Illustrator 23.0.5, SVG Export Plug-In . SVG Version: 6.00 Build 0)  -->
<svg version="1.1" id="Layer_1" xmlns="http://www.w3.org/2000/svg" xmlns:xlink="http://www.w3.org/1999/xlink" x="0px" y="0px"
	 viewBox="0 0 50 39" style="enable-background:new 0 0 50 39;" xml:space="preserve">
<style type="text/css">
	.st0{fill:#1BCFFC;}
	.st1{fill:#FFFFFF;}
</style>
<g>
	<path class="st0" d="M50,39c0,0-5-11.3-8.3-19.1c-1.7-4-3.3-7.2-4.5-9.4c0,0,0,0,0,0C34.1,3.8,27.2,0,19.4,0C8.7,0,0,8.7,0,19.5
		S8.7,39,19.4,39c0.1,0,0.2,0,0.3,0v0H50z"/>
	<g>
		<path class="st1" d="M19.3,9.8h3.9v13.3c0,1.2-0.3,2.3-0.8,3.2c-0.5,0.9-1.3,1.7-2.3,2.2c-1,0.5-2.1,0.8-3.3,0.8
			c-2,0-3.6-0.5-4.7-1.5c-1.1-1-1.7-2.5-1.7-4.4h4c0,0.9,0.2,1.6,0.6,2.1s1,0.7,1.9,0.7c0.8,0,1.4-0.3,1.8-0.8
			c0.4-0.5,0.7-1.3,0.7-2.2V9.8z"/>
	</g>
</g>
</svg>
