<svg xmlns="http://www.w3.org/2000/svg" width="18" height="14" viewBox="0 0 18 14">
    <g fill="none" fill-rule="evenodd">
        <path fill="#F6AA26" d="M13.644 4.065l.027-.01L18 14H7.15C3.202 14 0 10.866 0 7s3.201-7 7.15-7c2.88 0 5.36 1.665 6.494 4.065z"/>
        <path fill="#FFF" fill-rule="nonzero" d="M8.383 8.85c0-.303-.107-.535-.322-.698-.215-.162-.602-.333-1.16-.513-.559-.18-1.001-.357-1.327-.532-.888-.478-1.332-1.121-1.332-1.93 0-.421.119-.796.357-1.126.238-.33.58-.588 1.026-.773A3.877 3.877 0 0 1 7.126 3c.559 0 1.057.1 1.494.302.436.202.776.486 1.017.853.242.367.363.784.363 1.251H8.389c0-.356-.113-.633-.339-.831-.225-.198-.542-.297-.95-.297-.395 0-.7.083-.92.249a.783.783 0 0 0-.327.655c0 .253.128.465.384.636.256.171.633.332 1.13.481.918.275 1.586.615 2.005 1.022.419.406.628.913.628 1.519 0 .673-.256 1.202-.768 1.585S8.03 11 7.164 11c-.602 0-1.15-.11-1.644-.329-.494-.22-.87-.52-1.13-.9A2.3 2.3 0 0 1 4 8.443h1.617c0 .859.515 1.289 1.547 1.289.383 0 .682-.078.897-.233a.756.756 0 0 0 .322-.65z"/>
    </g>
</svg>
