<?xml version="1.0" encoding="utf-8"?>
<!-- Generator: Adobe Illustrator 23.0.5, SVG Export Plug-In . SVG Version: 6.00 Build 0)  -->
<svg version="1.1" id="Layer_1" xmlns="http://www.w3.org/2000/svg" xmlns:xlink="http://www.w3.org/1999/xlink" x="0px" y="0px"
	 viewBox="0 0 50 39" style="enable-background:new 0 0 50 39;" xml:space="preserve">
<style type="text/css">
	.st0{fill:#F6AA26;}
	.st1{fill:#FFFFFF;}
</style>
<g>
	<path class="st0" d="M50,39c0,0-5-11.3-8.3-19.1c-1.7-4-3.3-7.2-4.5-9.4c0,0,0,0,0,0C34.1,3.8,27.2,0,19.4,0C8.7,0,0,8.7,0,19.5
		S8.7,39,19.4,39c0.1,0,0.2,0,0.3,0v0H50z"/>
	<g>
		<path class="st1" d="M24.9,23.9l2.6-13.6h3.9l-4.2,19.2h-4l-3.1-12.8l-3.1,12.8h-4L8.8,10.3h3.9l2.6,13.6l3.1-13.6h3.3L24.9,23.9z
			"/>
	</g>
</g>
</svg>
