<svg xmlns="http://www.w3.org/2000/svg" width="22" height="22" viewBox="0 0 22 22">
  <g id="Group_4" data-name="Group 4" transform="translate(-3342 -4978)">
    <path id="download" d="M13,22a1,1,0,0,1-2,0V20.94A8.994,8.994,0,0,1,3.06,13H2a1,1,0,0,1,0-2H3.06A8.994,8.994,0,0,1,11,3.06V2a1,1,0,0,1,2,0V3.06A8.994,8.994,0,0,1,20.94,11H22a1,1,0,0,1,0,2H20.94A8.994,8.994,0,0,1,13,20.94ZM8,12a4,4,0,1,1,4,4A4,4,0,0,1,8,12ZM5,12a7,7,0,1,0,7-7A6.995,6.995,0,0,0,5,12Z" transform="translate(3341 4977)" fill-rule="evenodd"/>
  </g>
</svg>
