<svg xmlns="http://www.w3.org/2000/svg" width="24" height="24" viewBox="0 0 24 24">
    <g fill="#FFF" fill-rule="evenodd">
        <path fill="none" d="M24 0H0v24h24z"/>
        <path fill-rule="nonzero" d="M5.004 10.971h11.59L15.3 9.691a.982.982 0 0 1 0-1.4 1.007 1.007 0 0 1 1.415 0l3 2.97a.973.973 0 0 1 .283.638.965.965 0 0 1-.061.411.268.268 0 0 1-.007.027.99.99 0 0 1-.2.291c-.008.01-.01.021-.02.03l-3 2.971a1.008 1.008 0 0 1-1.415 0 .982.982 0 0 1 0-1.4l1.294-1.28H5.004a.99.99 0 1 1 0-1.978z"/>
    </g>
</svg>
