<svg xmlns="http://www.w3.org/2000/svg" width="16.031" height="7.918" viewBox="0 0 16.031 7.918">
  <g id="Group_5" data-name="Group 5" transform="translate(-3365.969 -4853)">
    <path id="Path_252" data-name="Path 252" d="M5,10.971h11.59L15.3,9.691a.982.982,0,0,1,0-1.4,1.007,1.007,0,0,1,1.415,0l3,2.97a1,1,0,0,1,.222,1.049.268.268,0,0,1-.007.027.99.99,0,0,1-.2.291c-.008.01-.01.021-.02.03l-3,2.971a1.008,1.008,0,0,1-1.415,0,.982.982,0,0,1,0-1.4l1.294-1.28H5a.99.99,0,1,1,0-1.978Z" transform="translate(3362 4845)"/>
  </g>
</svg>
