<svg xmlns="http://www.w3.org/2000/svg" width="685" height="51" viewBox="0 0 685 51">
    <g fill="none" fill-rule="evenodd">
        <path fill="#1BCFFC"
              d="M38.575 1c1.44 0 2.68.832 3.247 2.032l.014-.005L44 8h-5.425C36.601 8 35 6.433 35 4.5S36.6 1 38.575 1z"/>
        <path fill="#F6AA26"
              d="M324.575 1c1.44 0 2.68.832 3.247 2.032l.014-.005L330 8h-5.425C322.601 8 321 6.433 321 4.5s1.6-3.5 3.575-3.5z"/>
        <path fill="#FFF" fill-rule="nonzero"
              d="M30.55 35.328c-1.37 1.642-3.308 2.916-5.814 3.821-2.505.906-5.28 1.359-8.328 1.359-3.199 0-6.005-.698-8.417-2.095-2.412-1.396-4.274-3.423-5.586-6.081-1.312-2.658-1.984-5.78-2.018-9.37V20.45c0-3.69.622-6.885 1.866-9.585C3.497 8.164 5.29 6.1 7.636 4.67c2.344-1.43 5.09-2.146 8.239-2.146 4.384 0 7.812 1.046 10.283 3.136 2.472 2.09 3.936 5.133 4.393 9.128h-7.414c-.339-2.116-1.088-3.665-2.247-4.646-1.16-.982-2.755-1.473-4.786-1.473-2.59 0-4.562.973-5.916 2.92-1.355 1.947-2.04 4.841-2.057 8.683v2.362c0 3.876.736 6.804 2.209 8.785 1.473 1.98 3.63 2.97 6.474 2.97 2.861 0 4.9-.609 6.12-1.827v-6.373h-6.932v-5.612h14.549v14.752zM43.983 40H36.62V12.527h7.363V40zm4.977-13.94c0-4.214 1.003-7.608 3.009-10.181 2.006-2.573 4.71-3.86 8.112-3.86 3.013 0 5.357 1.033 7.033 3.098l.305-2.59h6.652v26.559c0 2.404-.546 4.494-1.637 6.271-1.092 1.778-2.628 3.132-4.609 4.063-1.98.93-4.3 1.396-6.957 1.396-2.014 0-3.978-.402-5.89-1.206-1.913-.804-3.36-1.84-4.342-3.11l3.25-4.469c1.828 2.048 4.045 3.073 6.652 3.073 1.947 0 3.462-.521 4.545-1.562 1.083-1.041 1.625-2.518 1.625-4.43v-1.473c-1.693 1.912-3.919 2.869-6.678 2.869-3.3 0-5.97-1.29-8.01-3.872s-3.06-6.005-3.06-10.27v-.305zm7.338.534c0 2.488.5 4.439 1.498 5.852.999 1.414 2.37 2.12 4.113 2.12 2.235 0 3.834-.837 4.799-2.513V20.5c-.982-1.676-2.564-2.514-4.748-2.514-1.76 0-3.144.72-4.151 2.159-1.008 1.438-1.511 3.588-1.511 6.449zm38.289 5.814c0-.897-.444-1.604-1.333-2.12-.83-.482-2.127-.916-3.893-1.302l-.385-.082c-6.534-1.37-9.801-4.147-9.801-8.328 0-2.437 1.011-4.473 3.034-6.106 2.023-1.634 4.668-2.45 7.935-2.45 3.487 0 6.275.82 8.366 2.462 2.09 1.642 3.136 3.775 3.136 6.399h-7.338c0-1.05-.339-1.917-1.016-2.603-.677-.685-1.735-1.028-3.174-1.028-1.235 0-2.192.28-2.869.838-.677.558-1.016 1.27-1.016 2.133 0 .812.386 1.468 1.156 1.967.719.467 1.898.874 3.539 1.222l.358.073c1.828.364 3.369.775 4.621 1.232 3.877 1.422 5.815 3.885 5.815 7.389 0 2.505-1.075 4.532-3.225 6.08-2.15 1.55-4.926 2.324-8.328 2.324-2.302 0-4.346-.41-6.132-1.232-1.786-.82-3.186-1.946-4.202-3.377-1.016-1.43-1.523-2.975-1.523-4.633h6.957c.067 1.303.55 2.302 1.447 2.996s2.099 1.04 3.605 1.04c1.405 0 2.467-.266 3.187-.8.72-.532 1.079-1.23 1.079-2.094z"/>
        <path fill="none" stroke="#FFF" stroke-width="1.5"
              d="M137.738 40c-.338-.66-.584-1.481-.736-2.463-1.777 1.98-4.088 2.97-6.932 2.97-2.691 0-4.921-.778-6.69-2.335-1.769-1.557-2.653-3.52-2.653-5.89 0-2.912 1.079-5.147 3.237-6.704 2.158-1.557 5.277-2.344 9.356-2.361h3.377v-1.574c0-1.27-.326-2.286-.977-3.047-.652-.762-1.68-1.143-3.085-1.143-1.236 0-2.205.296-2.907.889-.703.592-1.054 1.405-1.054 2.437h-7.338c0-1.59.49-3.063 1.473-4.418.981-1.354 2.37-2.416 4.164-3.186 1.794-.77 3.808-1.155 6.043-1.155 3.385 0 6.072.85 8.061 2.551 1.99 1.701 2.984 4.092 2.984 7.173v11.908c.016 2.607.38 4.58 1.091 5.916V40h-7.414zm-6.068-5.104a6.32 6.32 0 0 0 2.996-.723c.914-.483 1.591-1.13 2.031-1.943v-4.722h-2.742c-3.673 0-5.628 1.27-5.865 3.808l-.026.432c0 .914.322 1.667.965 2.26.644.592 1.524.888 2.64.888zm24.781-22.369l.229 3.174c1.963-2.454 4.595-3.681 7.896-3.681 2.912 0 5.078.854 6.5 2.564 1.422 1.71 2.15 4.266 2.184 7.668V40h-7.338V22.43c0-1.558-.339-2.687-1.016-3.39-.677-.702-1.802-1.054-3.377-1.054-2.065 0-3.614.88-4.646 2.641V40h-7.338V12.527h6.906zm21.227 13.534c0-4.283.96-7.694 2.882-10.233 1.92-2.539 4.549-3.808 7.883-3.808 2.675 0 4.884.998 6.627 2.996V1h7.364v39h-6.627l-.356-2.92c-1.828 2.285-4.18 3.428-7.058 3.428-3.234 0-5.828-1.274-7.783-3.821-1.955-2.548-2.932-6.09-2.932-10.626zm7.338.533c0-5.739 1.768-8.608 5.306-8.608 2.252 0 3.834.957 4.748 2.87v10.841c-.93 1.913-2.53 2.87-4.799 2.87-1.71 0-3.013-.686-3.91-2.057-.897-1.371-1.345-3.343-1.345-5.916zM429.676 26.01c0-2.726.525-5.155 1.574-7.287 1.05-2.133 2.56-3.784 4.532-4.952 1.972-1.167 4.262-1.751 6.868-1.751 3.707 0 6.733 1.134 9.078 3.402 2.344 2.268 3.652 5.349 3.922 9.242l.051 1.879c0 4.215-1.176 7.596-3.53 10.144-2.352 2.547-5.509 3.82-9.47 3.82-3.96 0-7.122-1.269-9.483-3.808-2.362-2.539-3.542-5.992-3.542-10.36v-.33zm7.338.533c0 2.607.49 4.6 1.472 5.98.982 1.379 2.387 2.069 4.215 2.069 1.778 0 3.166-.682 4.164-2.044.999-1.363 1.498-3.542 1.498-6.538 0-2.556-.5-4.537-1.498-5.942-.998-1.405-2.403-2.107-4.215-2.107-1.794 0-3.182.698-4.164 2.095-.981 1.396-1.472 3.559-1.472 6.487zm29.96-14.016l.23 3.174c1.963-2.454 4.595-3.681 7.896-3.681 2.911 0 5.078.854 6.5 2.564 1.421 1.71 2.15 4.266 2.183 7.668V40h-7.338V22.43c0-1.558-.338-2.687-1.015-3.39-.677-.702-1.803-1.054-3.377-1.054-2.065 0-3.614.88-4.647 2.641V40h-7.338V12.527h6.907zM499.676 26.06c0-4.282.96-7.693 2.882-10.232 1.92-2.539 4.549-3.808 7.883-3.808 2.675 0 4.884.998 6.627 2.996V1h7.364v39h-6.627l-.356-2.92c-1.828 2.285-4.18 3.428-7.058 3.428-3.233 0-5.828-1.274-7.783-3.821-1.955-2.548-2.932-6.09-2.932-10.626zm7.338.534c0 2.573.448 4.545 1.345 5.916.898 1.37 2.2 2.056 3.91 2.056 2.269 0 3.868-.956 4.8-2.869V20.855c-.915-1.912-2.497-2.869-4.749-2.869-3.537 0-5.306 2.87-5.306 8.608zm35.75 13.914c-4.029 0-7.309-1.236-9.84-3.707-2.53-2.472-3.795-5.764-3.795-9.877v-.711c0-2.76.533-5.226 1.6-7.401 1.066-2.176 2.577-3.851 4.532-5.028 1.955-1.176 4.185-1.764 6.69-1.764 3.758 0 6.716 1.184 8.874 3.554 2.158 2.37 3.237 5.73 3.237 10.08v2.996h-17.494c.237 1.795.953 3.233 2.146 4.317 1.193 1.083 2.704 1.625 4.532 1.625 2.827 0 5.036-1.024 6.627-3.072l3.606 4.037c-1.1 1.557-2.59 2.771-4.47 3.643-1.878.872-3.96 1.308-6.245 1.308zm-.838-22.547c-1.456 0-2.637.49-3.542 1.473-.906.981-1.486 2.386-1.74 4.214h10.208v-.584c-.034-1.625-.474-2.881-1.32-3.77-.847-.889-2.049-1.333-3.606-1.333zm23.181-5.434l.229 3.073c1.947-2.387 4.579-3.58 7.896-3.58 3.538 0 5.967 1.396 7.288 4.189 1.93-2.793 4.68-4.19 8.251-4.19 2.98 0 5.197.868 6.653 2.603 1.456 1.735 2.183 4.346 2.183 7.833V40h-7.363V22.48c0-1.557-.305-2.695-.914-3.415-.61-.719-1.684-1.079-3.225-1.079-2.2 0-3.723 1.05-4.57 3.149L581.561 40h-7.338V22.506c0-1.591-.313-2.742-.94-3.453-.626-.711-1.692-1.067-3.199-1.067-2.082 0-3.589.864-4.52 2.59V40h-7.337V12.527h6.88zM619.164 40c-.338-.66-.584-1.481-.736-2.463-1.778 1.98-4.088 2.97-6.932 2.97-2.691 0-4.921-.778-6.69-2.335-1.77-1.557-2.654-3.52-2.654-5.89 0-2.912 1.08-5.147 3.238-6.704 2.158-1.557 5.277-2.344 9.356-2.361h3.377v-1.574c0-1.27-.326-2.286-.977-3.047-.652-.762-1.68-1.143-3.085-1.143-1.236 0-2.205.296-2.908.889-.702.592-1.053 1.405-1.053 2.437h-7.338c0-1.59.49-3.063 1.472-4.418.982-1.354 2.37-2.416 4.164-3.186 1.795-.77 3.809-1.155 6.043-1.155 3.386 0 6.073.85 8.062 2.551 1.989 1.701 2.983 4.092 2.983 7.173v11.908c.017 2.607.381 4.58 1.092 5.916V40h-7.414zm-6.068-5.104a6.32 6.32 0 0 0 2.996-.723c.914-.483 1.59-1.13 2.031-1.943v-4.722h-2.742c-3.673 0-5.628 1.27-5.865 3.808l-.026.432c0 .914.322 1.667.965 2.26.643.592 1.524.888 2.64.888zm24.781-22.369l.228 3.174c1.964-2.454 4.596-3.681 7.897-3.681 2.911 0 5.078.854 6.5 2.564 1.422 1.71 2.15 4.266 2.184 7.668V40h-7.338V22.43c0-1.558-.339-2.687-1.016-3.39-.677-.702-1.803-1.054-3.377-1.054-2.065 0-3.614.88-4.646 2.641V40h-7.338V12.527h6.906zm21.227 13.534c0-4.283.96-7.694 2.881-10.233 1.922-2.539 4.55-3.808 7.884-3.808 2.675 0 4.884.998 6.627 2.996V1h7.363v39h-6.627l-.355-2.92c-1.828 2.285-4.181 3.428-7.059 3.428-3.233 0-5.827-1.274-7.782-3.821-1.955-2.548-2.932-6.09-2.932-10.626zm7.337.533c0-5.739 1.77-8.608 5.307-8.608 2.251 0 3.834.957 4.748 2.87v10.841c-.93 1.913-2.53 2.87-4.799 2.87-1.71 0-3.013-.686-3.91-2.057-.897-1.371-1.346-3.343-1.346-5.916z"
              opacity=".6"/>
        <path fill="#FFF" fill-rule="nonzero"
              d="M236.697 32.408c0-.897-.444-1.604-1.333-2.12-.83-.482-2.127-.916-3.893-1.302l-.385-.082c-6.534-1.37-9.8-4.147-9.8-8.328 0-2.437 1.01-4.473 3.033-6.106 2.023-1.634 4.668-2.45 7.935-2.45 3.487 0 6.276.82 8.366 2.462 2.09 1.642 3.136 3.775 3.136 6.399h-7.338c0-1.05-.339-1.917-1.016-2.603-.677-.685-1.735-1.028-3.173-1.028-1.236 0-2.193.28-2.87.838-.677.558-1.015 1.27-1.015 2.133 0 .812.385 1.468 1.155 1.967.719.467 1.898.874 3.539 1.222l.358.073c1.829.364 3.369.775 4.622 1.232 3.876 1.422 5.814 3.885 5.814 7.389 0 2.505-1.075 4.532-3.225 6.08-2.15 1.55-4.925 2.324-8.328 2.324-2.302 0-4.346-.41-6.132-1.232-1.785-.82-3.186-1.946-4.202-3.377-1.015-1.43-1.523-2.975-1.523-4.633h6.957c.068 1.303.55 2.302 1.447 2.996s2.1 1.04 3.606 1.04c1.405 0 2.467-.266 3.186-.8.72-.532 1.08-1.23 1.08-2.094zm24.502 8.1c-4.028 0-7.308-1.236-9.839-3.707-2.53-2.472-3.796-5.764-3.796-9.877v-.711c0-2.76.534-5.226 1.6-7.401 1.066-2.176 2.577-3.851 4.532-5.028 1.955-1.176 4.185-1.764 6.69-1.764 3.759 0 6.717 1.184 8.875 3.554 2.158 2.37 3.237 5.73 3.237 10.08v2.996h-17.494c.237 1.795.952 3.233 2.145 4.317 1.194 1.083 2.705 1.625 4.533 1.625 2.826 0 5.035-1.024 6.627-3.072l3.605 4.037c-1.1 1.557-2.59 2.771-4.469 3.643-1.879.872-3.96 1.308-6.246 1.308zm-.838-22.547c-1.455 0-2.636.49-3.542 1.473-.905.981-1.485 2.386-1.739 4.214h10.207v-.584c-.034-1.625-.474-2.881-1.32-3.77-.847-.889-2.048-1.333-3.606-1.333zm31.739 1.447a19.935 19.935 0 0 0-2.641-.203c-2.776 0-4.596.94-5.459 2.818V40h-7.338V12.527h6.932l.203 3.276c1.473-2.522 3.512-3.783 6.119-3.783.813 0 1.574.11 2.285.33l-.101 7.058zm13.812 11.63l5.104-18.51h7.668L309.416 40h-7.008l-9.267-27.473h7.668l5.103 18.51zM329.652 40h-7.363V12.527h7.363V40zm17.47-5.408c1.353 0 2.454-.373 3.3-1.117.846-.745 1.286-1.735 1.32-2.971h6.881a9.412 9.412 0 0 1-1.523 5.116c-1 1.549-2.366 2.75-4.101 3.606-1.735.854-3.652 1.282-5.751 1.282-3.927 0-7.025-1.249-9.293-3.745-2.268-2.497-3.402-5.946-3.402-10.347v-.482c0-4.232 1.125-7.61 3.377-10.131 2.251-2.522 5.34-3.783 9.267-3.783 3.436 0 6.191.977 8.265 2.932 2.073 1.955 3.127 4.558 3.161 7.808h-6.88c-.035-1.422-.475-2.577-1.321-3.466-.846-.889-1.964-1.333-3.352-1.333-1.71 0-3 .622-3.872 1.866-.872 1.244-1.307 3.263-1.307 6.056v.762c0 2.826.431 4.858 1.295 6.093.863 1.236 2.175 1.854 3.935 1.854zm28.335 5.916c-4.029 0-7.308-1.236-9.839-3.707-2.53-2.472-3.796-5.764-3.796-9.877v-.711c0-2.76.533-5.226 1.6-7.401 1.066-2.176 2.577-3.851 4.532-5.028 1.955-1.176 4.185-1.764 6.69-1.764 3.758 0 6.716 1.184 8.875 3.554 2.158 2.37 3.237 5.73 3.237 10.08v2.996h-17.494c.237 1.795.952 3.233 2.145 4.317 1.194 1.083 2.704 1.625 4.532 1.625 2.827 0 5.036-1.024 6.627-3.072l3.606 4.037c-1.1 1.557-2.59 2.771-4.469 3.643-1.879.872-3.96 1.308-6.246 1.308zm-.838-22.547c-1.456 0-2.636.49-3.542 1.473-.905.981-1.485 2.386-1.74 4.214h10.208v-.584c-.034-1.625-.474-2.881-1.32-3.77-.847-.889-2.049-1.333-3.606-1.333zm31.18 14.447c0-.897-.445-1.604-1.333-2.12-.83-.482-2.127-.916-3.893-1.302l-.385-.082c-6.534-1.37-9.801-4.147-9.801-8.328 0-2.437 1.011-4.473 3.034-6.106 2.023-1.634 4.668-2.45 7.934-2.45 3.487 0 6.276.82 8.367 2.462 2.09 1.642 3.135 3.775 3.135 6.399h-7.337c0-1.05-.339-1.917-1.016-2.603-.677-.685-1.735-1.028-3.174-1.028-1.236 0-2.192.28-2.87.838-.676.558-1.015 1.27-1.015 2.133 0 .812.385 1.468 1.156 1.967.718.467 1.898.874 3.538 1.222l.359.073c1.828.364 3.369.775 4.621 1.232 3.876 1.422 5.815 3.885 5.815 7.389 0 2.505-1.075 4.532-3.225 6.08-2.15 1.55-4.926 2.324-8.328 2.324-2.302 0-4.346-.41-6.132-1.232-1.786-.82-3.186-1.946-4.202-3.377-1.016-1.43-1.524-2.975-1.524-4.633h6.957c.068 1.303.55 2.302 1.448 2.996.897.694 2.099 1.04 3.605 1.04 1.405 0 2.467-.266 3.187-.8.72-.532 1.079-1.23 1.079-2.094z"/>
    </g>
</svg>
