<?xml version="1.0" encoding="utf-8"?>
<!-- Generator: Adobe Illustrator 23.0.5, SVG Export Plug-In . SVG Version: 6.00 Build 0)  -->
<svg version="1.1" id="Layer_1" xmlns="http://www.w3.org/2000/svg" xmlns:xlink="http://www.w3.org/1999/xlink" x="0px" y="0px"
	 viewBox="0 0 365 50" style="enable-background:new 0 0 365 50;" xml:space="preserve">
<style type="text/css">
	.st0{fill:#FFFFFF;}
	.st1{opacity:0.6;fill:none;stroke:#FFFFFF;stroke-width:1.5;enable-background:new    ;}
	.st2{fill:#1bcffc;}
</style>
<g>
	<g>
		<path class="st0" d="M29.8,33.9c-1.3,1.6-3.2,2.8-5.6,3.7c-2.4,0.9-5.1,1.3-8,1.3c-3.1,0-5.8-0.7-8.1-2c-2.3-1.3-4.1-3.3-5.4-5.8
			c-1.3-2.5-1.9-5.5-1.9-9v-2.4c0-3.5,0.6-6.6,1.8-9.2c1.2-2.6,2.9-4.6,5.2-5.9c2.2-1.4,4.9-2.1,7.9-2.1c4.2,0,7.5,1,9.9,3
			s3.8,4.9,4.2,8.7h-7.1c-0.3-2-1-3.5-2.2-4.5c-1.1-0.9-2.6-1.4-4.6-1.4c-2.5,0-4.4,0.9-5.7,2.8c-1.3,1.9-2,4.6-2,8.3v2.3
			c0,3.7,0.7,6.5,2.1,8.4c1.4,1.9,3.5,2.8,6.2,2.8c2.7,0,4.7-0.6,5.9-1.8v-6.1h-6.6v-5.4h13.9V33.9z"/>
		<path class="st0" d="M47.3,38.9c-3.9,0-7-1.2-9.4-3.6c-2.4-2.4-3.6-5.5-3.6-9.5v-0.7c0-2.6,0.5-5,1.5-7.1c1-2.1,2.5-3.7,4.3-4.8
			c1.9-1.1,4-1.7,6.4-1.7c3.6,0,6.4,1.1,8.5,3.4c2.1,2.3,3.1,5.5,3.1,9.7v2.9H41.4c0.2,1.7,0.9,3.1,2.1,4.1c1.1,1,2.6,1.6,4.3,1.6
			c2.7,0,4.8-1,6.3-2.9l3.5,3.9c-1.1,1.5-2.5,2.7-4.3,3.5C51.5,38.4,49.5,38.9,47.3,38.9z M46.5,17.2c-1.4,0-2.5,0.5-3.4,1.4
			c-0.9,0.9-1.4,2.3-1.7,4.1h9.8v-0.6c0-1.6-0.5-2.8-1.3-3.6C49.2,17.7,48,17.2,46.5,17.2z"/>
		<path class="st0" d="M70.6,5.6V12h4.5v5.2h-4.5v13.1c0,1,0.2,1.7,0.6,2.1c0.4,0.4,1.1,0.6,2.1,0.6c0.8,0,1.5-0.1,2.1-0.2v5.3
			c-1.4,0.4-2.8,0.6-4.3,0.6c-4.9,0-7.4-2.5-7.5-7.5V17.2h-3.8V12h3.8V5.6H70.6z"/>
		<path class="st1" d="M99.8,5.6V12h4.5v5.2h-4.5v13.1c0,1,0.2,1.7,0.6,2.1c0.4,0.4,1.1,0.6,2.1,0.6c0.8,0,1.5-0.1,2.1-0.2v5.3
			c-1.4,0.4-2.8,0.6-4.3,0.6c-4.9,0-7.4-2.5-7.5-7.5V17.2h-3.8V12h3.8V5.6H99.8z"/>
		<path class="st1" d="M115.1,14.9c1.9-2.2,4.2-3.4,7-3.4c5.7,0,8.6,3.3,8.7,10v16.9h-7V21.7c0-1.5-0.3-2.6-1-3.3
			c-0.6-0.7-1.7-1.1-3.2-1.1c-2.1,0-3.6,0.8-4.5,2.4v18.7h-7V1h7V14.9z"/>
		<path class="st1" d="M148.2,38.9c-3.9,0-7-1.2-9.4-3.6c-2.4-2.4-3.6-5.5-3.6-9.5v-0.7c0-2.6,0.5-5,1.5-7.1c1-2.1,2.5-3.7,4.3-4.8
			c1.9-1.1,4-1.7,6.4-1.7c3.6,0,6.4,1.1,8.5,3.4c2.1,2.3,3.1,5.5,3.1,9.7v2.9h-16.8c0.2,1.7,0.9,3.1,2.1,4.1c1.1,1,2.6,1.6,4.3,1.6
			c2.7,0,4.8-1,6.3-2.9l3.5,3.9c-1.1,1.5-2.5,2.7-4.3,3.5C152.4,38.4,150.4,38.9,148.2,38.9z M147.4,17.2c-1.4,0-2.5,0.5-3.4,1.4
			c-0.9,0.9-1.4,2.3-1.7,4.1h9.8v-0.6c0-1.6-0.5-2.8-1.3-3.6C150.1,17.7,148.9,17.2,147.4,17.2z"/>
		<path class="st0" d="M182.9,12v27.8c0,2.9-0.8,5.2-2.3,6.8c-1.5,1.6-3.8,2.4-6.7,2.4c-1.2,0-2.4-0.1-3.5-0.4V43
			c0.8,0.1,1.6,0.2,2.2,0.2c2.1,0,3.2-1.1,3.2-3.4V12H182.9z"/>
		<path class="st0" d="M187.3,25c0-2.6,0.5-4.9,1.5-7c1-2,2.5-3.6,4.3-4.7c1.9-1.1,4.1-1.7,6.6-1.7c3.6,0,6.5,1.1,8.7,3.3
			c2.2,2.2,3.5,5.1,3.8,8.9l0,1.8c0,4-1.1,7.3-3.4,9.7s-5.3,3.7-9.1,3.7c-3.8,0-6.8-1.2-9.1-3.6c-2.3-2.4-3.4-5.7-3.4-9.9V25z
			 M194.3,25.5c0,2.5,0.5,4.4,1.4,5.7c0.9,1.3,2.3,2,4,2c1.7,0,3-0.7,4-2c1-1.3,1.4-3.4,1.4-6.3c0-2.5-0.5-4.4-1.4-5.7
			c-1-1.3-2.3-2-4-2c-1.7,0-3,0.7-4,2C194.8,20.6,194.3,22.7,194.3,25.5z"/>
		<path class="st0" d="M240.3,25.5c0,4.2-0.9,7.5-2.7,9.9c-1.8,2.4-4.3,3.5-7.5,3.5c-2.9,0-5.1-1.1-6.8-3.3l-0.3,2.8h-6.3V1h7v13.4
			c1.6-1.9,3.8-2.8,6.4-2.8c3.2,0,5.7,1.2,7.6,3.5c1.8,2.4,2.7,5.7,2.7,10V25.5z M233.3,24.9c0-2.7-0.4-4.6-1.3-5.8
			c-0.8-1.2-2.1-1.8-3.8-1.8c-2.2,0-3.8,0.9-4.6,2.7v10.4c0.9,1.8,2.4,2.8,4.7,2.8c2.3,0,3.8-1.1,4.5-3.4
			C233.1,28.8,233.3,27.1,233.3,24.9z"/>
		<path class="st1" d="M255.9,25c0-4.1,0.9-7.4,2.8-9.8s4.4-3.6,7.6-3.6c2.6,0,4.7,1,6.4,2.9V1h7.1v37.4h-6.4l-0.3-2.8
			c-1.8,2.2-4,3.3-6.8,3.3c-3.1,0-5.6-1.2-7.5-3.7S255.9,29.4,255.9,25z M263,25.5c0,2.5,0.4,4.4,1.3,5.7c0.9,1.3,2.1,2,3.7,2
			c2.2,0,3.7-0.9,4.6-2.8V20c-0.9-1.8-2.4-2.8-4.5-2.8C264.7,17.3,263,20,263,25.5z"/>
		<path class="st1" d="M284,25c0-2.6,0.5-4.9,1.5-7c1-2,2.5-3.6,4.3-4.7c1.9-1.1,4.1-1.7,6.6-1.7c3.6,0,6.5,1.1,8.7,3.3
			c2.2,2.2,3.5,5.1,3.8,8.9l0,1.8c0,4-1.1,7.3-3.4,9.7c-2.3,2.4-5.3,3.7-9.1,3.7c-3.8,0-6.8-1.2-9.1-3.6c-2.3-2.4-3.4-5.7-3.4-9.9
			V25z M291,25.5c0,2.5,0.5,4.4,1.4,5.7c0.9,1.3,2.3,2,4,2c1.7,0,3-0.7,4-2c1-1.3,1.4-3.4,1.4-6.3c0-2.5-0.5-4.4-1.4-5.7
			c-1-1.3-2.3-2-4-2c-1.7,0-3,0.7-4,2C291.5,20.6,291,22.7,291,25.5z"/>
		<path class="st1" d="M319.8,12l0.2,3c1.9-2.4,4.4-3.5,7.6-3.5c2.8,0,4.9,0.8,6.2,2.5c1.4,1.6,2.1,4.1,2.1,7.3v17h-7V21.5
			c0-1.5-0.3-2.6-1-3.2c-0.6-0.7-1.7-1-3.2-1c-2,0-3.5,0.8-4.5,2.5v18.6h-7V12H319.8z"/>
		<path class="st1" d="M353.3,38.9c-3.9,0-7-1.2-9.4-3.6c-2.4-2.4-3.6-5.5-3.6-9.5v-0.7c0-2.6,0.5-5,1.5-7.1c1-2.1,2.5-3.7,4.3-4.8
			s4-1.7,6.4-1.7c3.6,0,6.4,1.1,8.5,3.4c2.1,2.3,3.1,5.5,3.1,9.7v2.9h-16.8c0.2,1.7,0.9,3.1,2.1,4.1c1.1,1,2.6,1.6,4.3,1.6
			c2.7,0,4.8-1,6.3-2.9l3.5,3.9c-1.1,1.5-2.5,2.7-4.3,3.5C357.5,38.4,355.5,38.9,353.3,38.9z M352.5,17.2c-1.4,0-2.5,0.5-3.4,1.4
			c-0.9,0.9-1.4,2.3-1.7,4.1h9.8v-0.6c0-1.6-0.5-2.8-1.3-3.6C355.1,17.7,354,17.2,352.5,17.2z"/>
	</g>
	<path class="st2" d="M178,1.5c1.4,0,2.6,0.8,3.1,1.9l0,0l2.1,4.7H178c-1.9,0-3.4-1.5-3.4-3.3S176.1,1.5,178,1.5z"/>
</g>
</svg>
