<?xml version="1.0" encoding="UTF-8"?>
<svg width="499px" height="184px" viewBox="0 0 499 184" version="1.1" xmlns="http://www.w3.org/2000/svg" xmlns:xlink="http://www.w3.org/1999/xlink">
    <!-- Generator: Sketch 47.1 (45422) - http://www.bohemiancoding.com/sketch -->
    <title>wage_web_logo-white-outline</title>
    <desc>Created with Sketch.</desc>
    <defs></defs>
    <g id="ios" stroke="none" stroke-width="1" fill="none" fill-rule="evenodd">
        <g id="wage_web_logo-white-outline" fill="#FFFFFF">
            <path d="M217.5,66.2389495 C210.063207,66.2389495 204.239671,72.0643646 204.239671,79.5010008 C204.239671,86.9376369 210.063207,92.7600497 217.5,92.7600497 C224.934791,92.7600497 230.758328,86.9376369 230.758328,79.5010008 C230.758328,72.0643646 224.934791,66.2389495 217.5,66.2389495 M217.5,99.6322581 C206.398352,99.6322581 197.367318,90.6024145 197.367318,79.5010008 C197.367318,68.3995871 206.398352,59.3667411 217.5,59.3667411 C228.599646,59.3667411 237.630681,68.3995871 237.630681,79.5010008 C237.630681,90.6024145 228.599646,99.6322581 217.5,99.6322581 M217.5,38.8722084 C195.09755,38.8722084 176.872353,57.0990224 176.872353,79.5010008 C176.872353,101.902979 195.09755,120.127792 217.5,120.127792 C224.361345,120.127792 230.875419,118.454523 237.414512,115.013916 L239.655258,113.836023 L241.445652,115.62638 C243.430198,117.611885 246.057245,118.750748 248.653267,118.750748 C253.788267,118.750748 258.127647,114.41246 258.127647,109.276568 L257.698312,39.6207757 C255.459569,39.5917538 252.26508,39.5607302 248.653267,39.5607302 C245.631913,39.5607302 243.187009,40.7366214 241.381603,43.0533773 L239.615227,45.3260998 L237.068243,43.9860842 C230.626225,40.593513 224.043097,38.8722084 217.5,38.8722084 M217.5,127 C191.307597,127 170,105.692851 170,79.5010008 C170,53.3091501 191.307597,32 217.5,32 C224.361345,32 231.215684,33.5892044 237.910899,36.7285838 C240.816162,34.1055958 244.542064,32.6885218 248.653267,32.6885218 C255.668731,32.6885218 261.134989,32.8056106 261.190032,32.8056106 L264.531635,32.8786659 L265,109.254551 C265,118.289398 257.666287,125.622956 248.653267,125.622956 C245.06347,125.622956 241.476677,124.380014 238.505362,122.152326 C231.653024,125.410796 224.758654,127 217.5,127" id="Fill-3"></path>
            <path d="M431.54186,60.9250956 C431.319998,60.9250956 431.096145,60.9290819 430.866324,60.9380511 C422.602701,61.2788806 421.036731,66.150151 420.285583,68.4931045 L420.105507,69.034246 C420.083619,69.0940407 420.063721,69.1548319 420.043823,69.2146265 L440.887932,65.7953694 C439.551784,63.5849607 436.841682,60.9250956 431.54186,60.9250956 M417.085991,76.5743507 C415.896093,76.5743507 414.733057,76.1069559 413.872471,75.2618583 C412.826833,74.2333904 412.328389,72.7514798 412.537318,71.2964767 C412.758185,69.7687236 413.138236,68.2379807 413.666527,66.7480974 L413.78094,66.3963056 C416.287088,58.5941011 421.942089,54.4573082 430.586758,54.1015301 C444.041759,53.5384639 447.873111,64.110157 448.505866,66.2338635 C448.880943,67.4925408 448.696887,68.8558587 447.999463,69.9750151 C447.299055,71.0981578 446.150943,71.8655224 444.846631,72.0797866 L417.819231,76.5145561 C417.575481,76.5544192 417.329741,76.5743507 417.085991,76.5743507 M393.632265,94.6173847 L394.361525,96.7211597 C394.698796,97.7047816 395.098745,98.8608114 395.33553,99.4129152 C397.68548,104.886118 400.937801,109.478347 405.006934,113.066026 C414.312216,121.267858 434.043033,132.85307 461.686275,118.30005 C463.773571,117.198832 465.431072,115.122962 466.119541,112.743135 C466.743342,110.586541 466.52347,108.418985 465.500714,106.640095 C462.907015,102.26213 458.138469,101.197785 452.763035,103.826757 C446.136019,107.462271 435.3951,109.738454 426.654921,106.477653 C421.579946,104.584155 417.838134,101.066237 415.782675,96.274693 C415.599614,95.9478156 415.450379,95.5432052 415.319052,95.0528891 L418.591272,94.0024965 L418.095813,90.7795651 C419.010124,90.6340648 446.482244,85.8694282 456.382474,83.7985404 C461.315178,82.7650896 465.496735,79.8321623 467.572092,75.9524864 C469.861353,71.666207 469.721072,66.246819 467.15324,59.8388263 C465.642985,56.0687739 463.147781,52.6674552 459.525357,49.4425307 C456.207372,46.4896718 452.184004,44.1267868 447.561708,42.4216428 C442.915534,40.711516 437.660483,39.8444937 431.942804,39.8444937 C426.875788,39.8444937 421.841604,40.6387659 416.976553,42.2063821 C412.22492,43.7401148 407.942878,46.1518321 404.247827,49.3747634 C400.578643,52.5797564 397.561117,56.7633884 395.282801,61.8060701 C393.107954,66.6175458 391.983719,72.6498289 391.843438,80.2497282 C391.719076,86.9756292 392.845301,91.9804409 393.632265,94.6173847 M435.871656,132 C423.059359,132 410.886782,127.365915 400.493082,118.203382 C395.657877,113.939028 391.810607,108.528609 389.060709,102.11663 C389.005989,101.991061 388.946295,101.845561 388.880632,101.678136 L388.843821,101.683119 L387.891703,98.9505033 C387.193285,97.189551 384.823438,90.3510368 385.010479,80.1221663 C385.169662,71.5725287 386.493872,64.657278 389.058719,58.9837628 C391.744943,53.0411717 395.344485,48.0712402 399.759842,44.2154822 C404.157291,40.3796557 409.24321,37.5125025 414.882292,35.6927522 C420.425864,33.9068854 426.164436,33 431.942804,33 C438.46635,33 444.516325,34.0095329 449.919616,35.9987014 C455.348775,38.0008254 460.106377,40.8032011 464.064082,44.3270989 C468.496352,48.2735454 471.581531,52.5139823 473.493725,57.2905778 C477.672297,67.7197604 475.854618,74.9519227 473.59421,79.1823938 C470.578674,84.8250151 464.66699,89.0574794 457.780306,90.4975337 C452.385969,91.6256594 442.192243,93.4792933 434.590227,94.833642 C430.542982,95.5561607 426.799181,96.2139018 424.018441,96.7002315 C425.311808,98.1741695 426.990201,99.300302 429.041681,100.06368 C434.767319,102.208315 443.232907,101.252597 449.623137,97.7506241 C458.277755,93.5141735 466.975153,95.7195994 471.399465,103.184961 C473.379312,106.630129 473.827016,110.689189 472.682883,114.648591 C471.468113,118.839199 468.620715,122.378045 464.86597,124.355255 C455.161734,129.465704 445.341096,131.998007 435.871656,132" id="Fill-5"></path>
            <path d="M217.53786,127 C198.980978,127 182.013001,115.963766 174.308465,98.8845274 C173.523512,97.1473145 174.288466,95.0980877 176.015362,94.3100009 C177.744258,93.5249337 179.778135,94.2908775 180.561088,96.0280904 C187.152691,110.644432 201.667816,120.088389 217.53786,120.088389 C224.397447,120.088389 230.907054,118.405527 237.437661,114.945192 L239.676526,113.760545 L241.465418,115.561168 C243.448299,117.558057 246.073141,118.70345 248.666984,118.70345 C253.797675,118.70345 258.133414,114.340287 258.133414,109.174947 L258.061418,97.4784518 C258.050419,95.5681215 259.577327,94.012078 261.473213,94 L261.495211,94 C263.383097,94 264.917005,95.5339006 264.929004,97.434166 L265,109.153811 C265,118.239455 257.672442,125.615061 248.666984,125.615061 C245.0792,125.615061 241.496416,124.364992 238.529595,122.123525 C231.684008,125.401684 224.794423,127 217.53786,127" id="Fill-7"></path>
            <path d="M435.519311,132 C422.689546,132 410.501369,127.364001 400.092503,118.196685 C395.250706,113.935554 391.39819,108.519909 388.64255,102.104284 C388.589749,101.978663 388.528977,101.832106 388.464221,101.664612 L388.456251,101.666606 L388.356625,101.387449 C388.199217,100.971704 388.00694,100.439312 387.767839,99.7543803 L387.484903,98.9687529 C387.434094,98.8291744 387.388266,98.684611 387.345427,98.5400476 L387.181045,98.0475349 C386.576318,96.2569424 387.535711,94.3148076 389.325981,93.7096352 C390.361089,93.362683 391.445014,93.5321711 392.290834,94.0855001 L393.00216,93.9668584 L393.595927,95.6747008 C393.619837,95.7335231 393.641755,95.7943395 393.66168,95.8561528 L393.952586,96.7055876 C394.290317,97.6886188 394.689815,98.8471202 394.925927,99.3954642 C397.27908,104.875914 400.537828,109.470039 404.612509,113.058203 C413.928485,121.26143 433.688196,132.85442 461.367133,118.29439 C463.457275,117.193714 465.117035,115.115989 465.806443,112.739167 C466.431095,110.579688 466.212915,108.409243 465.186773,106.629617 C462.593523,102.249844 457.813494,101.18506 452.43372,103.81412 C446.68035,106.968594 436.547446,109.667443 427.356999,106.667503 C421.762034,104.836034 417.510019,101.106298 415.06023,95.8780866 C414.257249,94.1652592 414.992484,92.1284104 416.70405,91.3258342 C418.412626,90.5212639 420.450963,91.2580389 421.252948,92.9708662 C422.905734,96.4942259 425.674325,98.9119245 429.481013,100.158161 C436.132008,102.335585 444.223587,100.508104 449.289541,97.7364743 C457.962932,93.4942855 466.665215,95.7066044 471.093566,103.173056 C473.078105,106.621642 473.526419,110.681381 472.376741,114.646407 C471.162307,118.837749 468.309034,122.376064 464.54917,124.352096 C454.833697,129.464657 444.999669,131.998006 435.519311,132" id="Fill-9"></path>
            <path d="M324.457005,68.271091 C317.246916,68.271091 311.380657,74.1174884 311.380657,81.3063845 C311.380657,88.3986047 317.246916,94.1672627 324.457005,94.1672627 C331.572107,94.1672627 337.360376,88.3986047 337.360376,81.3063845 C337.360376,74.1174884 331.572107,68.271091 324.457005,68.271091 M324.457005,101.012312 C313.460394,101.012312 304.514524,92.1719529 304.514524,81.3063845 C304.514524,70.3451369 313.460394,61.4270388 324.457005,61.4270388 C335.357629,61.4270388 344.226508,70.3451369 344.226508,81.3063845 C344.226508,92.1719529 335.357629,101.012312 324.457005,101.012312 M297.895361,159.921792 C305.226435,161.228411 320.820465,163.758926 328.107544,163.040335 C353.328359,160.568623 365.067876,145.600809 365.048878,115.932286 L365.048878,50.6222665 C365.048878,48.4216451 365.072875,44.0841883 365.089873,41.0154775 L355.240117,41.0154775 C352.256494,41.0154775 349.413853,42.378906 347.633078,44.6642434 L345.846304,46.9595474 L343.283627,45.5721991 C337.569349,42.4795685 331.058172,40.8440523 324.457005,40.8440523 C302.074833,40.8440523 283.866133,58.9961892 283.866133,81.3063845 C283.866133,103.460104 302.084831,121.610248 324.480003,121.766723 C329.662348,121.766723 334.845693,120.753122 339.863059,118.752829 L344.561466,116.880108 L344.571465,121.923199 C344.583463,129.166911 341.633836,135.966114 336.678462,140.111215 C333.105913,143.096207 326.647729,146.264583 316.125058,144.403822 C305.910348,142.592894 303.087705,147.481503 302.160822,149.085126 C301.682882,149.945242 299.812118,154.768072 297.895361,159.921792 M325.279901,170 C313.546384,170 293.539911,166.089113 292.606029,165.903735 L288.676525,165.131324 L290.044352,161.378906 C291.213205,158.169666 295.116712,147.557249 296.212573,145.664595 C299.025218,140.805886 304.979466,135.471771 317.326906,137.664419 C323.681103,138.789646 328.702469,137.850794 332.263019,134.86979 C334.561729,132.947236 336.234518,130.130679 337.080411,126.898517 C332.930935,128.0367 328.704469,128.610776 324.457005,128.610776 C298.277312,128.426394 277,107.206543 277,81.3063845 C277,55.2218444 298.288311,34 324.457005,34 C331.301141,34 338.067286,35.5029607 344.184514,38.3613766 C347.176136,35.7012957 351.137635,34.1714252 355.240117,34.1714252 L372,34.1714252 L371.978003,37.6158762 C371.978003,37.6178695 371.915011,47.0083837 371.915011,50.6222665 L371.915011,115.930293 C371.936008,148.904731 357.421841,167.044908 328.780459,169.851498 C327.734591,169.953157 326.55474,170 325.279901,170" id="Fill-11"></path>
            <path d="M325.343445,171 C313.570993,171 293.301459,166.839055 292.3589,166.643447 L288.433076,165.832925 L289.825333,162.076238 C290.998764,158.903367 294.915553,148.410725 296.011692,146.513823 C298.835354,141.62361 304.81192,136.253905 317.208729,138.46077 C323.587816,139.593294 328.627846,138.648354 332.203347,135.649023 C334.51106,133.713 336.190401,130.879184 337.039608,127.626064 C332.873878,128.770624 328.629854,129.349425 324.366757,129.349425 C304.886201,129.211997 287.580858,117.593853 280.258209,99.7503422 C279.536484,97.9908685 280.379668,95.9796115 282.140316,95.2563615 C283.904979,94.5391302 285.91557,95.3777391 286.637296,97.1372128 C292.900946,112.402704 307.720904,122.342627 324.389844,122.459992 C329.592488,122.459992 334.796137,121.440821 339.833156,119.427558 L344.549966,117.542694 L344.560004,122.618485 C344.572049,129.908163 341.610868,136.751453 336.636084,140.924435 C333.049542,143.928781 326.566061,147.116699 316.002173,145.243873 C305.747453,143.422205 302.913753,148.341509 301.98324,149.955531 C301.507443,150.80718 299.636378,155.566988 297.710105,160.666854 C305.058853,162.043135 320.73404,164.718458 328.031595,164.001227 C352.916557,161.558628 364.696034,146.990306 365.106585,118.155601 C365.1106,117.691156 365.06041,110.694389 365.024274,105.412959 C365.00219,102.252125 364.984122,99.6991831 364.984122,99.4975558 C364.984122,97.5936327 366.525944,96.0528393 368.430134,96.0528393 C370.334324,96.0528393 371.877149,97.5936327 371.877149,99.4975558 C371.877149,99.6991831 371.895218,102.229054 371.917301,105.363806 C371.976525,113.844188 372.003627,117.935918 371.999612,118.252904 C371.54088,150.383863 356.975884,168.082925 328.705138,170.856554 C327.697333,170.955863 326.566061,171 325.343445,171" id="Fill-13"></path>
            <path d="M64.2256449,40.321541 L64.2256449,40.2982456 C62.0871424,33.3147043 56.9419929,29 50.1461743,29 C42.3338702,29 36,35.2684753 36,43.0005064 C36,50.7315247 42.3338702,57 50.1461743,57 L70,57 L64.2256449,40.321541 Z" id="Fill-15"></path>
            <path d="M101.387485,71.7203174 L117.645769,111.883683 C119.136905,115.482074 123.37898,117.132254 126.685716,117.132254 C129.927359,117.132254 133.942109,116.414175 136.252417,110.828568 L160.413019,51.7171432 C161.567673,48.9288401 161.298287,46.0835308 159.676965,43.6512664 C157.71816,40.7159474 154.125014,38.8827481 150.291524,38.8677465 L149.964055,38.8677465 C145.839147,38.8807479 142.203941,41.3450158 140.719815,45.1474291 L125.02634,84.872747 L109.207685,46.3565605 C107.902816,43.1552125 104.82641,41.0909882 101.366455,41.0909882 C97.8023504,41.0909882 94.6588484,43.1552125 93.3579853,46.3475595 L78.1461995,83.3885857 L74.4709359,77.1359061 C70.3550413,70.6942059 68.0096824,70.6081965 65.0404299,70.5001848 C64.5046626,70.4821828 63.9718996,70.4601805 63.4411394,70.4171758 C62.6389906,70.3611697 56.2708704,70.2911621 50.5116222,70.2421568 C52.067851,74.9216654 54.42022,81.8854223 55.4667187,84.4026959 L66.3112499,110.834569 C68.0627584,115.071029 71.5878068,117.132254 77.081675,117.132254 C80.5406288,117.132254 83.6160332,115.069029 84.9199006,111.873682 L101.387485,71.7203174 Z M126.685716,124 C120.979544,124 114.003553,121.05668 111.281655,114.480965 L101.346426,89.9422981 L91.2860179,114.469964 C88.924636,120.256593 83.3486503,124 77.081675,124 C68.8508871,124 62.7671742,120.252593 59.9511412,113.449853 L49.1076114,87.0209805 C47.3881489,82.8765301 42.6764009,68.4479617 42.476114,67.8348951 L41,63.3044027 L45.7698312,63.3374062 C48.5678384,63.3564083 62.5969304,63.4584194 63.9999397,63.5724318 C64.4285536,63.6074356 64.8571674,63.6214371 65.2907884,63.6374389 C68.9530334,63.7714534 72.6082683,64.3385151 76.7171529,68.7679965 L86.9908666,43.7512773 C89.3482427,37.9666485 94.992326,34.2232417 101.366455,34.2232417 C107.635433,34.2232417 113.21242,37.9666485 115.573802,43.7582781 L124.90116,66.4717469 L134.317646,42.6391564 C136.833249,36.2024568 142.972041,32.0230025 149.953039,32 L150.306545,32 C156.504422,32.0260028 162.142496,34.9583216 165.400162,39.8448527 C168.289299,44.1773236 168.797027,49.442896 166.790152,54.2884227 L163.546507,53.1382976 L166.730066,54.4354386 L142.614529,113.434852 C140.617669,118.262376 136.239399,124 126.685716,124 L126.685716,124 Z" id="Fill-17"></path>
            <path d="M126.420682,123 C120.762356,123 113.842872,120.095627 111.143796,113.605937 L104.250131,96.6612935 C103.543088,94.9253803 104.386177,92.9506435 106.133923,92.2499623 C107.87571,91.5502679 109.86675,92.386151 110.571807,94.1220641 L117.454548,111.043023 C118.933181,114.593799 123.139687,116.223129 126.420682,116.223129 C129.632165,116.223129 133.614245,115.514553 135.905182,110.000883 L142.432416,94.1121954 C143.144424,92.378256 145.13745,91.5423729 146.877252,92.2539098 C148.621025,92.9614991 149.458156,94.9391966 148.746148,96.6711622 L142.213948,112.574653 C140.233832,117.338298 135.894259,123 126.420682,123" id="Fill-19"></path>
            <path d="M76.7395372,123 C68.5991475,123 62.5842325,119.301836 59.7991277,112.587502 L53.2553201,96.6736524 C52.5422066,94.942513 53.3741724,92.961671 55.1123868,92.253029 C56.8565438,91.5473478 58.835434,92.3734389 59.549538,94.1035914 L66.0893838,110.007571 C67.8216556,114.186388 71.3060078,116.2225 76.7395372,116.2225 C80.1605015,116.2225 83.2041099,114.185401 84.493657,111.031056 L91.4514667,94.1055653 C92.1635898,92.3724519 94.1543652,91.5453739 95.886637,92.253029 C97.6258418,92.961671 98.4578076,94.9405391 97.7446941,96.6726655 L90.7898557,113.595195 C88.4544087,119.305784 82.9376828,123 76.7395372,123" id="Fill-21"></path>
        </g>
    </g>
</svg>