<?xml version="1.0" encoding="utf-8"?>
<!-- Generator: Adobe Illustrator 25.3.1, SVG Export Plug-In . SVG Version: 6.00 Build 0)  -->
<svg version="1.1" id="Warstwa_1" xmlns="http://www.w3.org/2000/svg" xmlns:xlink="http://www.w3.org/1999/xlink" x="0px" y="0px"
	 viewBox="0 0 86 24" style="enable-background:new 0 0 86 24;" xml:space="preserve">
<style type="text/css">
	.st0{fill-rule:evenodd;clip-rule:evenodd;fill:#232930;}
	.st1{fill-rule:evenodd;clip-rule:evenodd;fill:#00D192;}
</style>
<g>
	<path class="st0" d="M40.3,1.8h-0.5C38.8,1,37.5,0,34.2,0c-5.4,0-8.8,3-8.8,8.7c0,5.6,3.4,8.8,9.1,8.8c3.2,0,4.2-1,5.2-2.1h0.5v1.8
		H44V0.3h-3.7V1.8z M34.8,14c-3.5,0-5.3-2-5.3-5.3s1.9-5.4,5.3-5.4c3.4,0,5.4,2,5.4,5.3C40.3,12,38.2,14,34.8,14z"/>
	<path class="st0" d="M61.2,1.8h-0.5C59.7,1,58.5,0,55.3,0c-5.5,0-8.9,3-8.9,8.3c0,5.3,3.4,8.6,9,8.6c3.3,0,4.3-1.2,5.3-2.1h0.5
		c0,3.5-1.7,6-5.4,6c-1.1,0-4.7,0-5.4-3.1h-3.7c0.7,3.9,3.5,6.4,8.8,6.4c6,0,9.4-3,9.4-9.2v-0.9V0.3h-3.7V1.8z M55.8,13.3
		c-3.5,0-5.3-2-5.3-5s1.9-5,5.3-5c3.4,0,5.4,2,5.4,5C61.2,11.3,59.2,13.3,55.8,13.3z"/>
	<path class="st0" d="M76.4,0C70.5,0,67,3.3,67,8.8c0,5.6,3.7,8.8,10,8.8c4.9,0,8.1-2.1,8.7-5.7h-4.4c-0.5,1.5-2.1,2.1-4.6,2.1
		c-3.1,0-5.1-1.1-5.6-3.8h14.7C86.5,3.3,82.3,0,76.4,0z M71.2,7.2c0.5-2.6,2.4-3.9,5.3-3.9c3.4,0,5.3,1.7,5.3,4L71.2,7.2z"/>
	<polygon class="st0" points="18,12.6 17.6,12.6 14.5,0.3 9.8,0.3 6.7,12.6 6.3,12.6 5.2,7.3 1.5,7.3 3.7,17.2 9.8,17.2 12.1,6.6 
		14.5,17.2 20.9,17.2 24.6,0.3 20.6,0.3 	"/>
</g>
<polygon class="st1" points="3.7,0.3 0,0.3 1.1,5.2 4.8,5.2 "/>
</svg>
