<svg xmlns="http://www.w3.org/2000/svg" xmlns:xlink="http://www.w3.org/1999/xlink" width="1202" height="1080" viewBox="0 0 1202 1080">
  <defs>
    <clipPath id="clip-Wage-graphics">
      <rect width="1202" height="1080"/>
    </clipPath>
  </defs>
  <g id="Wage-graphics" clip-path="url(#clip-Wage-graphics)">
    <g id="Group_12" data-name="Group 12" transform="translate(4 59.929)">
      <g id="Group_11" data-name="Group 11" transform="translate(0 0.071)">
        <path id="Path_1" data-name="Path 1" d="M1579.736,372.621c-1.572-27.784-47.648-28.979-47.648-28.979s-39.854,39.665-48.843,38.911,27.47-40.545,27.47-40.545c-16.658-5.217-64.306,6.475-64.306,6.475s-8.612,54.249-17.161,51.294,10.058-47.648,10.058-47.648c-17.475,1.446-36.836,17.412-36.836,17.412C1376.7,396.7,1412.9,428.378,1412.9,428.378s-3.394,18.732-19.424,37.653h0a62.126,62.126,0,0,0-7.48,9.555l4.463.943c.629-1.131,1.257-2.2,1.949-3.206h0v-.063c.44-.629,1.131-1.509,1.886-2.577h0c1.949-2.389,3.269-4.149,4.149-5.469h0c5.909-7.543,14.081-17.224,18.544-18.732a7.405,7.405,0,0,1-.5-2.263c.189.691.314,1.446.5,2.263,4.212,18.041,41.991,28.916,64.243,29.042,22.315.126,14.269-7.858,4.84-20.053s-34.07-14.709-40.419-20.052c-6.286-5.343,4.9-6.978,18.921-2.892s18.1,19.864,40.671,26.9,49.22-32.5,49.22-32.5c-16.909,1.572-43.562-13.2-43.5-18.921s42.117,3.772,49.031,3.52C1567.038,411.154,1581.308,400.405,1579.736,372.621Z" transform="translate(-514.753 -126.567)" fill="#ecfffd"/>
        <path id="Path_2" data-name="Path 2" d="M1454.3,200.385s27.784-99.571,89.073-152.122c8.172-6.978,20.555.189,18.732,10.749a1.839,1.839,0,0,1-.126.566C1558.523,77.556,1488.559,144.942,1454.3,200.385Z" transform="translate(-540.12 -16.94)" fill="#ecfffd" opacity="0.5"/>
        <path id="Path_3" data-name="Path 3" d="M1437.1,240.684s71.347-118.806,168.466-161.3a12.171,12.171,0,0,1,15.841,5.595c1.823,3.772,2.074,9.3-1.886,17.287C1609.086,123.449,1498.829,183.355,1437.1,240.684Z" transform="translate(-533.732 -29.14)" fill="#ecfffd" opacity="0.5"/>
        <path id="Path_4" data-name="Path 4" d="M1419.2,1113.126s108.309-54.312,127.921-35.391S1419.2,1113.126,1419.2,1113.126Z" transform="translate(-527.084 -398.824)" fill="#cefffa" opacity="0.5"/>
        <path id="Path_5" data-name="Path 5" d="M1391.2,1145.12s145.019-12.761,147.282,17.475S1391.2,1145.12,1391.2,1145.12Z" transform="translate(-516.685 -424.344)" fill="#cefffa" opacity="0.5"/>
        <path id="Path_6" data-name="Path 6" d="M592.02,107.931c18.481-57.014,115.16-34.2,115.16-34.2s61.289,104.411,80.4,107.743c19.172,3.332-34.95-99.508-34.95-99.508,37.528-1.76,130.435,48.717,130.435,48.717s-11.818,117.738,7.543,116.229c19.361-1.446,5.155-104.788,5.155-104.788,35.579,12.635,67.261,56.386,67.261,56.386,38.785,70.718-54,116.858-54,116.858s-3.206,40.859,19.738,89.073h0a139.184,139.184,0,0,1,10.372,23.95l-9.869-.5c-.691-2.7-1.446-5.28-2.326-7.795v-.063c0-.063,0-.063-.063-.126-.629-1.572-1.446-3.772-2.514-6.475h0c-2.7-6.035-4.526-10.5-5.657-13.7h0c-8.109-18.921-19.927-43.688-28.35-49.157a18.547,18.547,0,0,0,2.326-4.4c-.754,1.383-1.509,2.892-2.326,4.4-18.607,35.328-103.217,37.151-149.734,25.27-46.517-11.943-25.4-24.2,1.006-44.442s79.078-12.006,95.108-19.675c16.092-7.669-6.412-17.224-37.842-16.344s-48.591,31.43-99.445,33.756c-50.791,2.326-84.673-94.668-84.673-94.668,34.385,12.572,97.937-3.646,100.954-15.589S625.965,203.605,611.7,199.268C597.426,195.119,573.539,164.946,592.02,107.931Z" transform="translate(-217.371 -25.755)" fill="#ecfffd"/>
        <path id="Path_7" data-name="Path 7" d="M1516.912,800.656c-9.178-34.008-66.569-23.384-66.569-23.384s-38.974,59.466-50.288,60.912,23.384-57.392,23.384-57.392c-21.938-2.137-77.884,24.767-77.884,24.767s3.52,69.4-7.795,68.015c-11.315-1.446,0-61.6,0-61.6-21.247,6.349-41.048,31.179-41.048,31.179-24.767,40.356,28.35,70.089,28.35,70.089s.691,24.076-14.144,51.671h0a84.842,84.842,0,0,0-6.789,13.766h5.783c.5-1.572,1.006-3.08,1.571-4.526h0v-.063c.377-.88.943-2.137,1.7-3.709h0c1.76-3.457,2.954-6.035,3.709-7.858h0c5.28-10.875,12.949-25.018,18.041-28.036a11.692,11.692,0,0,1-1.257-2.64c.377.817.817,1.76,1.257,2.64,9.932,21.247,59.466,24.767,87.125,19.11,27.6-5.657,15.589-13.452.691-26.087s-46.014-9.3-55.254-14.269c-9.178-4.966,4.275-9.932,22.693-8.486s27.6,19.8,57.392,22.693c29.733,2.829,52.426-53.117,52.426-53.117-20.555,6.349-57.392-4.966-58.775-12.069-1.446-7.1,53.117-6.349,61.6-8.486C1511.255,851.636,1526.09,834.6,1516.912,800.656Z" transform="translate(-479.148 -288.136)" fill="#ecfffd"/>
        <path id="Path_8" data-name="Path 8" d="M698.778,740.114c20.43-38.659,86.936-10.183,86.936-10.183s30.99,82.6,44.317,87.439c13.326,4.777-12.7-75.81-12.7-75.81,27.156,3.394,87.565,51.231,87.565,51.231s-23.2,83.039-9.052,84.422C909.927,878.6,912.63,802.6,912.63,802.6c24.013,13.515,41.237,48.905,41.237,48.905C972.913,907.134,900.5,928.7,900.5,928.7s-7.417,28.979,3.08,66.443h0a100.075,100.075,0,0,1,4.463,18.481l-7.04-1.571a57.231,57.231,0,0,0-.691-5.846v-.126c-.251-1.194-.566-2.892-1.006-4.966h0c-1.194-4.652-1.949-8.109-2.389-10.561h0c-3.457-14.584-8.863-33.819-14.206-38.848a15.021,15.021,0,0,0,2.2-2.892c-.691.943-1.446,1.886-2.2,2.892-17.79,23.007-78.764,13.829-110.7-.566-31.87-14.4-15.212-20.555,6.223-31.807s58.272,1.257,70.781-2.263-2.452-13.138-25.144-16.469c-22.693-3.269-38.848,16.469-75.621,11.818s-48.968-78.576-48.968-78.576c23.133,13.326,70.781,9.618,74.427,1.446s-62.546-22.19-72.29-27.03C691.738,803.415,678.349,778.773,698.778,740.114Z" transform="translate(-255.549 -267.385)" fill="#ecfffd"/>
        <path id="Path_9" data-name="Path 9" d="M674.234,1205.879c-10.812-23.384,26.339-44.317,26.339-44.317s49.786,15.087,56.763,10.561c7.04-4.526-40.042-21.184-40.042-21.184,11.315-11.5,55.317-22.63,55.317-22.63s30.55,40.608,36.271,34.448c5.72-6.1-28.916-34.573-28.916-34.573,14.9-6.412,37.653-1.823,37.653-1.823,32.813,11,17.035,52.614,17.035,52.614s10.875,13.829,32.185,22.378h0a57.7,57.7,0,0,1,10.246,4.526l-3.269,2.7c-1.006-.629-2.012-1.257-3.017-1.76h-.063c-.629-.314-1.571-.754-2.7-1.32h0c-2.64-1.132-4.463-2.012-5.783-2.64h0c-8.046-3.583-18.984-7.983-23.258-7.229a7.829,7.829,0,0,0-.566-2.074q.283.943.566,2.074c4.4,16.6-21.75,41.8-39.854,51.608-18.167,9.806-15.024-.251-12.635-14.332s21.435-26.841,24.264-33.945-7.04-3.583-16.721,5.846-6.16,24.076-21.561,39.6c-15.338,15.526-54.312-5.218-54.312-5.218,14.521-6.035,29.859-29.67,27.344-34.322s-32.75,21.373-38.534,24.138C701.327,1231.84,685.046,1229.263,674.234,1205.879Z" transform="translate(-249.674 -417.779)" fill="#e6fffc"/>
        <g id="Group_4" data-name="Group 4" transform="translate(90.393 387.191)">
          <g id="Group_1" data-name="Group 1" transform="translate(86.496 121.911)">
            <path id="Path_10" data-name="Path 10" d="M485.638,1023.4a153.316,153.316,0,0,0,21.75.817c11.881-.692,26.464-1.006,29.23,2.137,2.7,3.143,2.7,3.143-2.577,5.909-4.086,2.137-19.927,9.115-30.613,5.846-10.686-3.332-24.327-2.64-24.327-2.64Z" transform="translate(-354.825 -889.232)" fill="#fc9490"/>
            <path id="Path_11" data-name="Path 11" d="M281.4,827.4s22.818,113.086,49.974,121.7c13.389,4.275,72.038,12.258,89.2,12.383,0,0,4.023-3.646,2.137-17.475,0,0-62.043-18.67-71.347-30.3-13.892-17.287,3.583-74.175-13.515-90.142C320.751,807.66,293.218,801.94,281.4,827.4Z" transform="translate(-281.4 -809.962)" fill="#9fe8e0"/>
          </g>
          <path id="Path_12" data-name="Path 12" d="M289.289,1393.128h14.9a.2.2,0,0,0,.189-.189v-194.05a.2.2,0,0,0-.189-.189h-14.9a.2.2,0,0,0-.189.189v194.05A.2.2,0,0,0,289.289,1393.128Z" transform="translate(-197.764 -832.427)" fill="#9fe8e0"/>
          <path id="Path_13" data-name="Path 13" d="M192.2,1512.961c7.166-14.9,35.139-25.961,68.581-25.961s61.415,11.126,68.581,25.961Z" transform="translate(-161.776 -939.5)" fill="#9fe8e0"/>
          <path id="Path_14" data-name="Path 14" d="M218.226,1443.458H322.511a.135.135,0,0,0,.126-.126v-7.606a.135.135,0,0,0-.126-.126H218.226a.135.135,0,0,0-.126.126v7.606C218.163,1443.395,218.163,1443.458,218.226,1443.458Z" transform="translate(-171.395 -920.41)" fill="#9fe8e0"/>
          <path id="Path_15" data-name="Path 15" d="M274.989,1130.751a204.337,204.337,0,0,0,15.715,22.441c17.287,21.813,36.082,39.791,39.351,56.763a77.364,77.364,0,0,0,3.017,10.875c1.383,3.9,3.08,7.983,5.029,12.195,7.355,15.9,18.292,33.756,29.23,49.974,18.921,28.036,36.711,51.42,36.711,51.42l32.625-1.383c-1.32-3.269-15.527-41.991-34.573-89.262-7.732-19.173-15.967-39.6-23.887-59.34-1.069-2.64-2.137-5.28-3.143-7.858q-3.677-9.052-7.166-17.727c-17.852-44.442-32.122-79.77-32.122-79.77s-71.41-27.03-78.827-9.555C250.85,1084.046,255.816,1098.189,274.989,1130.751Z" transform="translate(-184.909 -782.267)"/>
          <path id="Path_16" data-name="Path 16" d="M494,1479.889s1.7,26.9,6.852,27.281c.691.063,26.4.063,26.4.063l32.813-.188s-.189-7.92-9.806-9.555c-9.618-1.7-25.647-8.423-31.493-21.121C512.732,1463.042,494,1479.889,494,1479.889Z" transform="translate(-273.863 -933.646)"/>
          <path id="Path_17" data-name="Path 17" d="M361.6,1362.7s-22.693,14.584-20.493,19.3c.314.629,12.824,23.07,12.824,23.07l16.155,28.6s6.789-4.023,3.583-13.264c-3.206-9.178-5.155-26.527,3.08-37.779C385.491,1370.809,361.6,1362.7,361.6,1362.7Z" transform="translate(-217.025 -893.336)"/>
          <path id="Path_18" data-name="Path 18" d="M360.658,1069.1s96.679,69.461,107.24,91.273c8.235,17.035-123.144,125.344-123.144,125.344s-19.11-18.984-21.624-28.161c0,0,45.26-65.061,81.153-86.182,10.686-6.286-128.047-21.624-143.008-45.008-15.024-23.384-6.726-54.311-6.726-54.311Z" transform="translate(-184.083 -784.294)" fill="#111417"/>
          <path id="Path_19" data-name="Path 19" d="M144.429,1205.245H340.051a.63.63,0,0,0,.629-.629v-43.688a.63.63,0,0,0-.629-.629H144.429a.63.63,0,0,0-.629.629v43.688A.63.63,0,0,0,144.429,1205.245Z" transform="translate(-143.8 -818.165)" fill="#1f252a"/>
          <path id="Path_20" data-name="Path 20" d="M331.037,729.214A50.684,50.684,0,0,1,344.677,741.6c-21.5,5.532-57.077-14.332-57.077-14.332s13.829-9.3,18.921-29.733c.251-1.006.5-2.074.691-3.143a61.844,61.844,0,0,0,1.132-11.189l9.869,8.863,16.407,14.709a139.9,139.9,0,0,1-2.452,16.6C331.917,725.191,331.477,727.14,331.037,729.214Z" transform="translate(-197.207 -640.973)" fill="#fc9490"/>
          <path id="Path_21" data-name="Path 21" d="M357.779,943.044c-.063.189-.126.44-.189.691-2.074,5.783-33.316,25.521-54.437,33.316-13.2,4.9-58.9,15.841-61.918,6.412-3.52-10.875,9.3-90.393,6.223-131.756-3.646-50.6,10.372-96.617,29.859-111.64,1.446-1.069,4.4,1.823,12.824,5.783a37.779,37.779,0,0,0,23.7,3.143l6.538,5.595c9.052,8.109,18.921,19.172,23.447,36.208,2.766,10.435,4.84,26.9,6.349,45.448.566,7.166,1.131,14.709,1.572,22.253.691,12.069,1.32,24.2,1.572,35.768V895.4a34.727,34.727,0,0,1,.126,3.583c.063,1.194.063,2.326.126,3.457.189,9.052.189,17.412.5,24.7a26.279,26.279,0,0,0,1.7,8.36c.817,2.137,1.634,3.646,2.012,5.155A6.1,6.1,0,0,1,357.779,943.044Z" transform="translate(-179.758 -662.01)" fill="#bffff8"/>
          <path id="Path_22" data-name="Path 22" d="M345.267,712.009a139.9,139.9,0,0,1-2.452,16.6c-16.029-5.155-23.321-19.675-25.71-25.773-.691-1.76-1.006-2.829-1.006-2.829s.629-.126,1.7-.377c2.263-.5,6.475-1.383,11-2.326Z" transform="translate(-207.791 -646.209)" fill="#ff8585"/>
          <path id="Path_23" data-name="Path 23" d="M349.9,693.276s-35.39-.88-34.51-22.944S312.31,633.307,335,632.993c22.63-.377,26.716,8.235,28.162,15.652C364.673,656.063,359.141,692.962,349.9,693.276Z" transform="translate(-207.522 -622.322)" fill="#fc9490"/>
          <g id="Group_2" data-name="Group 2" transform="translate(183.199 180.075)">
            <rect id="Rectangle_1" data-name="Rectangle 1" width="3.269" height="84.862" transform="translate(89.011 81.714) rotate(-162)"/>
            <rect id="Rectangle_2" data-name="Rectangle 2" width="89.01" height="5.343" transform="translate(88.993 81.635) rotate(-178.776)"/>
          </g>
          <path id="Path_24" data-name="Path 24" d="M306.757,623.049c-.251-.377-.817-.754-2.263-1.069a5.856,5.856,0,0,1,2.829-.251c.629-1.949,2.326-5.28,5.909-5.532a4.309,4.309,0,0,0-2.64,2.766c4.715-3.394,13.766-4.84,37.025,1.194,30.676,7.983,16.909,26.087,12.446,27.721s-13.452-6.663-21.058-7.355c-7.606-.754-10.938,9.869-13.766,10.875s-1.32-1.446-4.526-3.583c-3.143-2.137-4.526,3.457-4.149,7.355.314,3.9-5.28,7.92-5.28,7.92l-3.9-5.972c-3.9-5.972-4.526-28.6-1.509-32.876C306.191,623.8,306.506,623.426,306.757,623.049Z" transform="translate(-203.289 -616.024)" fill="#2c3a64"/>
          <path id="Path_25" data-name="Path 25" d="M370.813,979.432c-8.612-1.383-29.859-5.657-45.26-15.275C297.707,946.745,281.3,858.3,281.3,858.3l43.625,55.82,43.625,31.933.063.314c.189,9.052.189,17.412.5,24.7A27.706,27.706,0,0,0,370.813,979.432Z" transform="translate(-194.867 -706.004)" fill="#9fe8e0"/>
          <g id="Group_3" data-name="Group 3" transform="translate(216.554 227.1)">
            <path id="Path_26" data-name="Path 26" d="M489.18,983.851a12.778,12.778,0,0,0,6.726,0c3.583-1.006,15.967-4.149,18.041-3.08,2.074,1.006,8.486,6.16,10.058,7.229,1.571,1.006,3.834,5.406,3.834,5.406-1.446,1.069-5.28-2.514-7.229-2.766s-17.412,5.217-21.624,4.715A78.784,78.784,0,0,1,488.3,992.9Z" transform="translate(-488.3 -978.508)" fill="#fc9490"/>
            <path id="Path_27" data-name="Path 27" d="M530.5,993.4c0,.251,4.212,6.852,8.423,5.657l-3.646-4.966Z" transform="translate(-503.973 -983.279)" fill="#fc9490"/>
            <path id="Path_28" data-name="Path 28" d="M500.3,982.643a68.431,68.431,0,0,0,7.166-5.343s.88.566.754,1.383c-.126,1.32-1.823,3.52-1.823,3.52Z" transform="translate(-492.757 -977.3)" fill="#fc9490"/>
          </g>
          <path id="Path_29" data-name="Path 29" d="M322.084,783.807c-22.944-19.612-57.329,2.577-49.031,31.619,9.555,33.63,28.036,89.136,47.02,94.479,13.515,3.834,72.352,9.995,89.576,9.555,0,0,3.206,1.194.943-12.509,0,0-64.495-19.927-71.6-33.065-3.772-7.04,1.257-74.238-16.344-89.639C322.461,784.121,322.273,783.932,322.084,783.807Z" transform="translate(-191.334 -675.576)" fill="#bffff8"/>
        </g>
        <g id="Group_5" data-name="Group 5" transform="translate(527.588 156.352)">
          <path id="Path_30" data-name="Path 30" d="M1100.06,650.291a8.845,8.845,0,0,0,.126,10.561,4.125,4.125,0,0,1,.5.817c43.625,26.213,174.438,132.2,174.438,206.937v154.763H880.3V868.543c0-75.181,132.573-182.861,175.255-207.691h0a8.945,8.945,0,0,0,1.823-5.343,9.165,9.165,0,0,0-1.823-5.406C1012.81,624.769,880.3,517.844,880.3,442.663V287.9h394.827V442.725C1275.064,517.844,1142.931,625.272,1100.06,650.291Z" transform="translate(-854.527 -263.322)" fill="#bffff8"/>
          <path id="Path_31" data-name="Path 31" d="M1282.53,1497.816H839.3v-38.785a1.127,1.127,0,0,1,1.131-1.131h441.092a1.1,1.1,0,0,1,1.069,1.069v38.848Z" transform="translate(-839.3 -697.854)" fill="#1f252a"/>
          <path id="Path_32" data-name="Path 32" d="M993.323,878.1c-2.011,34.636,4.589,109.377,3.96,145.271H880.3V868.543c0-75.181,132.573-182.861,175.255-207.691h0a8.945,8.945,0,0,0,1.823-5.343,9.165,9.165,0,0,0-1.823-5.406C1012.81,624.77,880.3,517.844,880.3,442.663V287.9h78.261l55.883,15.275V425.627s-5.532,35.265,8.3,69.9S1066.3,641.239,1065.864,655.7C1065.424,670.092,996.781,818.757,993.323,878.1Z" transform="translate(-854.527 -263.322)" fill="#9fe8e0"/>
          <path id="Path_33" data-name="Path 33" d="M1235.026,451.6c-23.95.377-65.061,4.652-131.63,21.5-45.574,11.5-124.15,2.829-165.7-3.143a24.185,24.185,0,0,0-27.6,23.95v17.852c0,49.157,132.259,155.643,167.209,182.924a21.957,21.957,0,0,1,8.423,17.224v273.38a28.54,28.54,0,0,1-12.258,23.384c-27.533,19.235-73.861,75.558-73.861,75.558h175.318s-47.02-54.374-73.421-74.552a24.265,24.265,0,0,1-9.555-19.3v-278.6a21.938,21.938,0,0,1,8.235-17.161c34.259-27.47,163.689-134.333,163.689-183.427V480.011A28.44,28.44,0,0,0,1235.026,451.6Z" transform="translate(-865.595 -324.117)" fill="#00ceb8"/>
          <path id="Path_34" data-name="Path 34" d="M1281.4,288.654H840.369a1.1,1.1,0,0,1-1.069-1.069V248.8h443.23v38.785A1.115,1.115,0,0,1,1281.4,288.654Z" transform="translate(-839.3 -248.8)" fill="#1f252a"/>
        </g>
        <g id="Group_6" data-name="Group 6" transform="translate(127.733 206.452)">
          <path id="Path_35" data-name="Path 35" d="M310.3,402.685,414.146,417.52,345.188,370.5l-3.457,15.087-25.27,4.589Z" transform="translate(-242.976 -344.099)" fill="#9fe8e0"/>
          <path id="Path_36" data-name="Path 36" d="M374.369,416.443l-86.433-44.568L203.2,367.6Z" transform="translate(-203.2 -343.022)" fill="#bffff8"/>
          <path id="Path_37" data-name="Path 37" d="M365.8,354.9l68.958,47.02L381.389,328.5Z" transform="translate(-263.589 -328.5)" fill="#bffff8"/>
        </g>
        <g id="Group_8" data-name="Group 8" transform="translate(295.16 320.514)">
          <path id="Path_38" data-name="Path 38" d="M587.884,515.326l18.481,59.466a7.607,7.607,0,0,1,.314,2.64,7.714,7.714,0,0,1-5.406,7.04l-103.28,32.122a7.581,7.581,0,0,1-8.423-2.766,7.411,7.411,0,0,1-1.194-2.326l-18.481-59.4a7.678,7.678,0,0,1,5.029-9.618L578.2,510.36A7.563,7.563,0,0,1,587.884,515.326Z" transform="translate(-469.547 -509.953)" fill="#bffff8"/>
          <g id="Group_7" data-name="Group 7" transform="translate(0.063 0)">
            <path id="Path_39" data-name="Path 39" d="M618.609,609.475a7.714,7.714,0,0,1-5.406,7.04l-103.28,32.122a7.581,7.581,0,0,1-8.423-2.766L553.3,596.4Z" transform="translate(-481.477 -542.059)" fill="#9fe8e0"/>
            <path id="Path_40" data-name="Path 40" d="M587.921,515.326l-45.2,58.837-71.787-19.047-.943-3.017a7.678,7.678,0,0,1,5.029-9.618L578.3,510.36A7.522,7.522,0,0,1,587.921,515.326Z" transform="translate(-469.647 -509.953)" fill="#ecfffd"/>
          </g>
        </g>
        <g id="Group_10" data-name="Group 10" transform="translate(764.258)">
          <path id="Path_41" data-name="Path 41" d="M1327.526,30.451l-12.949,49.66a7.241,7.241,0,0,1-.88,2.012,6.4,6.4,0,0,1-6.852,2.577L1220.6,62.2a6.273,6.273,0,0,1-4.714-5.595,6.172,6.172,0,0,1,.189-2.137L1229.024,4.8a6.325,6.325,0,0,1,7.732-4.526L1323,22.782A6.279,6.279,0,0,1,1327.526,30.451Z" transform="translate(-1215.823 -0.071)" fill="#bffff8"/>
          <g id="Group_9" data-name="Group 9">
            <path id="Path_42" data-name="Path 42" d="M1313.611,108.428a6.4,6.4,0,0,1-6.852,2.577l-86.245-22.5a6.273,6.273,0,0,1-4.715-5.595L1273.632,70.9Z" transform="translate(-1215.8 -26.377)" fill="#9fe8e0"/>
            <path id="Path_43" data-name="Path 43" d="M1334.894,30.451l-57.266,21.5L1235.7,7.318l.692-2.514a6.325,6.325,0,0,1,7.732-4.526l86.245,22.5A6.279,6.279,0,0,1,1334.894,30.451Z" transform="translate(-1223.191 -0.071)" fill="#ecfffd"/>
          </g>
        </g>
        <path id="Path_44" data-name="Path 44" d="M1192.653,1526.052H.063c-.063,0-.063,0-.063-.063v-4.526c0-.063,0-.063.063-.063h1192.59a2.362,2.362,0,0,1,2.326,2.326h0A2.32,2.32,0,0,1,1192.653,1526.052Z" transform="translate(0 -565.085)"/>
      </g>
    </g>
  </g>
</svg>
