<svg xmlns="http://www.w3.org/2000/svg" width="24" height="24" viewBox="0 0 24 24"><g fill="#00D192" fill-rule="evenodd"><path fill-opacity="0" d="M0 0h24v24H0z"/><path fill-rule="nonzero" d="M18 9h-1v2h1v7l-2.41-2H10v-2h-.51L8 15.24V16c.001.145.018.289.05.43A2 2 0 0 0 10 18h4.87l1.85 1.54A2.03 2.03 0 0 0 18 20a2 2 0 0 0 2-2v-7a2.006 2.006 0 0 0-2-2zm-8.87 4H14a2.006 2.006 0 0 0 2-2V6a2.006 2.006 0 0 0-2-2H6a2.006 2.006 0 0 0-2 2v7a2 2 0 0 0 2 2 2.03 2.03 0 0 0 1.28-.46l.72-.6L9.13 13zM6 13V6h8v5H8.41l-.41.34L6 13z"/></g></svg>
