<svg xmlns="http://www.w3.org/2000/svg" width="24" height="24" viewBox="0 0 24 24"><g fill="#919497" fill-rule="evenodd"><path fill="none" d="M0 0h24v24H0z"/><path d="M17.973 13.969a10.05 10.05 0 0 0-2.527-1.355 4.979 4.979 0 0 0-2.856-8.576 4.587 4.587 0 0 0-1.179 0 4.982 4.982 0 0 0-2.857 8.576c-.902.329-1.753.785-2.525 1.355a2.52 2.52 0 0 0 0 4.062 10.041 10.041 0 0 0 11.944 0 2.522 2.522 0 0 0 0-4.062zM8.993 9a2.99 2.99 0 0 1 2.7-2.98 2.43 2.43 0 0 1 .623 0A3 3 0 1 1 8.993 9zm7.785 7.424a8.03 8.03 0 0 1-9.555 0 .523.523 0 0 1 0-.849 8.034 8.034 0 0 1 9.555 0 .524.524 0 0 1 0 .849z"/></g></svg>
