<svg xmlns="http://www.w3.org/2000/svg" width="16" height="16" viewBox="0 0 16 16">
    <g fill="none" fill-rule="evenodd">
        <path fill="#FFF" fill-opacity="0" d="M-20-20h56v56h-56z"/>
        <path fill="#483EE8" fill-rule="nonzero" d="M15.535.149a1.012 1.012 0 0 0-.98-.04l-3.63 1.8L5.397.078H5.39L5.325.05l-.12-.03a.908.908 0 0 0-.43.01c-.027.007-.048.023-.074.032a.993.993 0 0 0-.16.067c-.03.016-.067.023-.1.041L.55 2.101a.972.972 0 0 0-.55.886v11.947a.992.992 0 0 0 1 .996c.155-.002.31-.04.45-.11l3.63-1.8 5.6 1.862c.254.08.53.06.77-.06l4-1.991a.983.983 0 0 0 .55-.886V.995a.993.993 0 0 0-.466-.846zM2.005 3.603l2-1v9.717l-2 1V3.603zm4-1.224l4 1.324v9.846l-4-1.324V2.379zm8 9.946l-2 1V3.608l2-1v9.717z"/>
    </g>
</svg>
