<svg xmlns="http://www.w3.org/2000/svg" width="434" height="52" viewBox="0 0 434 52">
    <g fill="none" fill-rule="nonzero">
        <g stroke="#FFF" stroke-width="1.3" opacity=".6">
            <path d="M246.671 40.533v-22.09h-4.088v-5.382h4.088v-2.336c0-3.081.884-5.472 2.653-7.173C251.094 1.85 253.57 1 256.751 1c1.016 0 2.26.17 3.732.508l-.076 5.687c-.61-.152-1.354-.228-2.234-.228-2.76 0-4.139 1.295-4.139 3.885v2.209h5.46v5.382h-5.46v22.09h-7.363zM278.883 19.941a19.935 19.935 0 0 0-2.64-.203c-2.776 0-4.596.94-5.46 2.819v17.976h-7.337V13.061h6.931l.204 3.275c1.472-2.522 3.512-3.783 6.119-3.783.812 0 1.574.11 2.285.33l-.102 7.058zM294.719 41.041c-4.029 0-7.308-1.236-9.84-3.707-2.53-2.471-3.795-5.764-3.795-9.877v-.71c0-2.76.533-5.227 1.6-7.402 1.066-2.175 2.577-3.851 4.532-5.028 1.955-1.176 4.185-1.764 6.69-1.764 3.758 0 6.716 1.185 8.874 3.554 2.159 2.37 3.238 5.73 3.238 10.08v2.997h-17.495c.237 1.794.953 3.233 2.146 4.316 1.193 1.083 2.704 1.625 4.532 1.625 2.827 0 5.036-1.024 6.627-3.072l3.606 4.037c-1.1 1.557-2.59 2.772-4.47 3.643-1.878.872-3.96 1.308-6.245 1.308z"/>
            <path d="M293.88 18.494c-1.455 0-2.636.491-3.541 1.473-.906.982-1.485 2.387-1.74 4.215h10.208v-.584c-.034-1.625-.474-2.882-1.32-3.77-.847-.89-2.049-1.334-3.606-1.334zM322.97 41.041c-4.028 0-7.308-1.236-9.839-3.707-2.53-2.471-3.796-5.764-3.796-9.877v-.71c0-2.76.534-5.227 1.6-7.402s2.577-3.851 4.532-5.028c1.955-1.176 4.185-1.764 6.69-1.764 3.759 0 6.716 1.185 8.875 3.554 2.158 2.37 3.237 5.73 3.237 10.08v2.997h-17.494c.237 1.794.952 3.233 2.145 4.316 1.194 1.083 2.704 1.625 4.533 1.625 2.826 0 5.035-1.024 6.627-3.072l3.605 4.037c-1.1 1.557-2.59 2.772-4.469 3.643-1.879.872-3.96 1.308-6.246 1.308z"/>
            <path d="M322.132 18.494c-1.455 0-2.636.491-3.542 1.473-.905.982-1.485 2.387-1.739 4.215h10.207v-.584c-.034-1.625-.474-2.882-1.32-3.77-.847-.89-2.048-1.334-3.606-1.334z"/>
        </g>
        <path fill="#FFF" d="M0 40.533V3.564h11.375c3.25 0 6.157.733 8.722 2.197 2.564 1.464 4.566 3.546 6.005 6.246 1.438 2.7 2.158 5.768 2.158 9.204v1.701c0 3.436-.707 6.492-2.12 9.166-1.414 2.675-3.407 4.748-5.98 6.22-2.573 1.473-5.476 2.218-8.709 2.235H0zM7.617 9.734v24.68H11.3c2.979 0 5.256-.973 6.83-2.92 1.574-1.946 2.378-4.731 2.412-8.353v-1.955c0-3.758-.779-6.606-2.336-8.544-1.557-1.939-3.834-2.908-6.83-2.908H7.617zm24.697 16.809c0-2.725.525-5.154 1.574-7.287 1.05-2.133 2.56-3.783 4.532-4.951 1.972-1.168 4.262-1.752 6.869-1.752 3.707 0 6.732 1.134 9.077 3.402 2.344 2.268 3.652 5.349 3.923 9.242l.05 1.88c0 4.214-1.176 7.595-3.529 10.143-2.353 2.547-5.51 3.821-9.47 3.821-3.962 0-7.123-1.27-9.484-3.809-2.361-2.539-3.542-5.992-3.542-10.359v-.33zm7.338.533c0 2.607.49 4.6 1.472 5.98.982 1.38 2.387 2.069 4.215 2.069 1.778 0 3.166-.681 4.164-2.044 1-1.363 1.498-3.542 1.498-6.538 0-2.556-.499-4.536-1.498-5.941-.998-1.405-2.403-2.108-4.214-2.108-1.795 0-3.183.698-4.165 2.095-.981 1.396-1.472 3.559-1.472 6.487zm47.243 3.479l3.606-17.494h7.084l-7.008 27.472h-6.144l-5.206-17.29-5.205 17.29h-6.119l-7.008-27.472h7.084l3.58 17.468 5.028-17.468h5.306l5.002 17.494zm21.219-17.494l.228 3.173c1.964-2.454 4.596-3.681 7.897-3.681 2.911 0 5.078.855 6.5 2.564 1.422 1.71 2.15 4.266 2.183 7.668v17.748h-7.338v-17.57c0-1.557-.338-2.687-1.015-3.39-.677-.702-1.803-1.053-3.377-1.053-2.065 0-3.614.88-4.647 2.64v19.373h-7.338V13.061h6.907zm30.257 27.472h-7.363v-39h7.363v39zm5.044-13.99c0-2.725.525-5.154 1.575-7.287 1.049-2.133 2.56-3.783 4.532-4.951 1.972-1.168 4.261-1.752 6.868-1.752 3.707 0 6.733 1.134 9.077 3.402 2.344 2.268 3.652 5.349 3.923 9.242l.05 1.88c0 4.214-1.176 7.595-3.529 10.143-2.352 2.547-5.51 3.821-9.47 3.821-3.961 0-7.122-1.27-9.484-3.809-2.361-2.539-3.542-5.992-3.542-10.359v-.33zm7.338.533c0 2.607.491 4.6 1.473 5.98.982 1.38 2.387 2.069 4.215 2.069 1.777 0 3.165-.681 4.164-2.044.998-1.363 1.498-3.542 1.498-6.538 0-2.556-.5-4.536-1.498-5.941-.999-1.405-2.404-2.108-4.215-2.108-1.794 0-3.182.698-4.164 2.095-.982 1.396-1.473 3.559-1.473 6.487zm39.271 13.457c-.338-.66-.584-1.48-.736-2.463-1.778 1.98-4.088 2.971-6.932 2.971-2.691 0-4.921-.779-6.69-2.336-1.77-1.557-2.654-3.52-2.654-5.89 0-2.912 1.08-5.146 3.238-6.704 2.158-1.557 5.277-2.344 9.356-2.361h3.377v-1.574c0-1.27-.326-2.285-.977-3.047-.652-.762-1.68-1.143-3.085-1.143-1.236 0-2.205.297-2.908.889-.702.592-1.053 1.405-1.053 2.438h-7.338c0-1.592.49-3.064 1.472-4.418.982-1.355 2.37-2.417 4.165-3.187 1.794-.77 3.808-1.155 6.043-1.155 3.385 0 6.072.85 8.061 2.551 1.989 1.702 2.983 4.093 2.983 7.173v11.909c.017 2.606.381 4.578 1.092 5.916v.431h-7.414zm-6.068-5.103a6.32 6.32 0 0 0 2.996-.724c.914-.482 1.591-1.13 2.031-1.942V28.04h-2.742c-3.673 0-5.628 1.27-5.865 3.809l-.026.431c0 .914.322 1.668.965 2.26.643.592 1.524.889 2.64.889zm17.029-8.836c0-4.283.96-7.694 2.881-10.233 1.922-2.539 4.55-3.808 7.884-3.808 2.675 0 4.884.998 6.627 2.996V1.533h7.363v39h-6.627l-.355-2.92c-1.828 2.285-4.181 3.428-7.059 3.428-3.233 0-5.827-1.274-7.782-3.821-1.955-2.548-2.932-6.09-2.932-10.626zm7.337.533c0 2.573.449 4.545 1.346 5.916.897 1.371 2.2 2.057 3.91 2.057 2.269 0 3.868-.957 4.8-2.87V21.39c-.915-1.913-2.498-2.87-4.749-2.87-3.538 0-5.307 2.87-5.307 8.608zM367.59 40.533c-.338-.66-.584-1.48-.736-2.463-1.777 1.98-4.088 2.971-6.932 2.971-2.691 0-4.921-.779-6.69-2.336-1.77-1.557-2.654-3.52-2.654-5.89 0-2.912 1.08-5.146 3.238-6.704 2.158-1.557 5.277-2.344 9.356-2.361h3.377v-1.574c0-1.27-.326-2.285-.977-3.047-.652-.762-1.68-1.143-3.085-1.143-1.236 0-2.205.297-2.908.889-.702.592-1.053 1.405-1.053 2.438h-7.338c0-1.592.49-3.064 1.473-4.418.981-1.355 2.37-2.417 4.164-3.187 1.794-.77 3.808-1.155 6.043-1.155 3.385 0 6.072.85 8.061 2.551 1.989 1.702 2.983 4.093 2.983 7.173v11.909c.017 2.606.381 4.578 1.092 5.916v.431h-7.414zm-6.068-5.103a6.32 6.32 0 0 0 2.996-.724c.914-.482 1.591-1.13 2.031-1.942V28.04h-2.742c-3.673 0-5.628 1.27-5.865 3.809l-.026.431c0 .914.322 1.668.965 2.26.643.592 1.524.889 2.64.889zm42.902-8.38c0 4.233-.96 7.622-2.882 10.17-1.921 2.547-4.515 3.821-7.782 3.821-2.776 0-5.02-.965-6.729-2.895v12.95h-7.338V13.06h6.805l.254 2.691c1.777-2.133 4.096-3.2 6.957-3.2 3.385 0 6.017 1.253 7.896 3.759 1.88 2.505 2.819 5.958 2.819 10.359v.38zm-7.338-.532c0-2.556-.453-4.528-1.359-5.916-.905-1.388-2.221-2.082-3.948-2.082-2.302 0-3.885.88-4.748 2.64v11.248c.897 1.811 2.497 2.717 4.799 2.717 3.504 0 5.256-2.87 5.256-8.607zm36.757.533c0 4.232-.96 7.621-2.882 10.169-1.921 2.547-4.515 3.821-7.782 3.821-2.776 0-5.019-.965-6.729-2.895v12.95h-7.337V13.06h6.804l.254 2.691c1.778-2.133 4.097-3.2 6.957-3.2 3.386 0 6.018 1.253 7.897 3.759 1.879 2.505 2.818 5.958 2.818 10.359v.38zm-7.338-.533c0-2.556-.453-4.528-1.358-5.916-.906-1.388-2.222-2.082-3.948-2.082-2.303 0-3.885.88-4.749 2.64v11.248c.898 1.811 2.497 2.717 4.8 2.717 3.503 0 5.255-2.87 5.255-8.607z"/>
    </g>
</svg>
