<svg xmlns="http://www.w3.org/2000/svg" width="24" height="24" viewBox="0 0 24 24">
    <g fill="none" fill-rule="evenodd">
        <path d="M0 0h24v24H0z"/>
        <path fill="#483EE8" d="M17.5 4h-11c-.66 0-1.21.42-1.42 1.01L3 11v8c0 .55.45 1 1 1h1c.55 0 1-.45 1-1v-1h12v1c0 .55.45 1 1 1h1c.55 0 1-.45 1-1v-8l-2.08-5.99C18.72 4.42 18.16 4 17.5 4zM5 13.5c0-.83.67-1.5 1.5-1.5s1.5.67 1.5 1.5S7.33 15 6.5 15 5 14.33 5 13.5zm11 0c0-.83.67-1.5 1.5-1.5s1.5.67 1.5 1.5-.67 1.5-1.5 1.5-1.5-.67-1.5-1.5zm-9.5-8h11L19 10H5l1.5-4.5z"/>
    </g>
</svg>
