<svg xmlns="http://www.w3.org/2000/svg" width="414.382" height="414.384" viewBox="0 0 414.382 414.384">
  <path id="download" d="M376,168.81a207.41,207.41,0,1,0,146.444,60.748A207.171,207.171,0,0,0,376,168.81Zm69.66,255.93h0a14.8,14.8,0,1,1-20.93,20.93L376,396.936,327.266,445.67a14.8,14.8,0,0,1-20.925-20.929l48.734-48.734-48.734-48.734a14.8,14.8,0,0,1,20.925-20.925L376,355.082l48.734-48.734a14.8,14.8,0,0,1,20.929,20.925l-48.734,48.734Z" transform="translate(-168.812 -168.808)" fill="#00d192"/>
</svg>
