<svg xmlns="http://www.w3.org/2000/svg" width="16" height="16" viewBox="0 0 16 16">
    <g fill="none" fill-rule="evenodd">
        <path fill="#FFF" fill-opacity="0" d="M-20-20h56v56h-56z"/>
        <path fill="#00D192" fill-rule="nonzero" d="M15.783 13.515l-.99-4a2.067 2.067 0 0 0-.21-.51c.12-.21.202-.438.242-.676l.99-6a2.015 2.015 0 0 0-.442-1.622A1.975 1.975 0 0 0 13.86 0H1.98C1.397 0 .844.26.47.707a2.015 2.015 0 0 0-.443 1.622l.99 6c.04.238.121.467.242.676-.093.16-.164.331-.21.51l-.99 4a2.017 2.017 0 0 0 .36 1.716c.373.484.95.768 1.561.769h11.88c.61 0 1.186-.285 1.56-.769a2.014 2.014 0 0 0 .363-1.716zM13.86 2l-.99 6h-9.9l-.99-6h11.88zM1.977 14l.99-4h9.9l.991 4H1.977zm6.931-3h-1.98a1 1 0 1 0 0 2h1.98a1 1 0 0 0 .003-2h-.003z"/>
    </g>
</svg>
