<svg xmlns="http://www.w3.org/2000/svg" width="8" height="15" viewBox="0 0 8 15"><path fill="#000" fill-rule="nonzero" d="M5.453 10.188c0-.428-.118-.767-.355-1.02s-.64-.486-1.207-.7a14.24 14.24 0 0 1-1.47-.636 4.68 4.68 0 0 1-1.058-.727 2.92 2.92 0 0 1-.687-.964C.512 5.77.43 5.33.43 4.82c0-.88.28-1.602.843-2.165.563-.562 1.31-.89 2.243-.984V0h1.25v1.695c.922.13 1.643.515 2.164 1.153.52.638.78 1.464.78 2.48H5.454c0-.625-.129-1.092-.387-1.402-.257-.31-.602-.465-1.035-.465-.427 0-.758.121-.992.363-.234.242-.352.577-.352 1.004 0 .396.115.714.344.953.23.24.655.485 1.278.735.622.25 1.134.485 1.535.707.4.221.74.471 1.015.75.276.278.487.596.633.953.146.357.219.772.219 1.246 0 .885-.276 1.604-.828 2.156-.552.552-1.313.878-2.281.977v1.554H3.359v-1.546c-1.067-.115-1.894-.494-2.48-1.137C.293 11.533 0 10.677 0 9.609h2.258c0 .62.147 1.095.441 1.426.294.33.718.496 1.27.496.458 0 .82-.12 1.086-.363.265-.242.398-.569.398-.98z"/></svg>
