<svg xmlns="http://www.w3.org/2000/svg" viewBox="0 0 62 56"><g fill="#00D192" fill-rule="nonzero"><path d="M22.643 43.804c-5.567-.043-10.976-1.777-15.45-4.953a1.582 1.582 0 0 1-.708-1.308c0-.52.264-1.009.708-1.309 4.47-3.2 9.902-4.927 15.482-4.921 1.084 0 2.165-.105 3.227-.312.37-.071.708-.214 1.065-.311a16.705 16.705 0 0 0 1.95-.58c.39-.155.74-.373 1.114-.557a17.21 17.21 0 0 0 1.625-.844c.302-.193.562-.433.851-.642.486-.328.953-.68 1.4-1.056l-.029-.028c6.39-5.767 6.863-15.35 1.072-21.672-5.79-6.32-15.764-7.108-22.555-1.78-6.79 5.33-7.958 14.858-2.639 21.549.078.103.182.184.26.283.46.572.96 1.113 1.495 1.62l-.033.028a31.977 31.977 0 0 0-8.162 4.205C1.23 32.703 0 35.048 0 37.54s1.23 4.837 3.316 6.323c5.572 3.984 12.337 6.136 19.288 6.136a3.36 3.36 0 0 0 2.353-.887c.63-.585.988-1.387.997-2.228a3.026 3.026 0 0 0-.978-2.21 3.297 3.297 0 0 0-2.333-.87zm.022-37.397c5.384 0 9.748 4.193 9.748 9.364 0 5.172-4.364 9.365-9.748 9.365-5.383 0-9.747-4.193-9.747-9.365 0-5.171 4.364-9.364 9.747-9.364z"/><path d="M55.393 37.506c.792 1.665.477 3.613-.805 4.979-.901.959-8.584 7.75-8.584 7.75s-7.699-6.791-8.6-7.766a4.443 4.443 0 0 1-1.229-3.063c0-2.563 2.2-4.64 4.915-4.64 2.714 0 4.914 2.077 4.914 4.64 0-2.563 2.2-4.64 4.914-4.64 1.933.003 3.684 1.075 4.475 2.74zM51.998 29a10.215 10.215 0 0 0-6.01 1.929c-4.108-2.941-9.858-2.425-13.33 1.197-3.474 3.622-3.551 9.183-.18 12.893 1.125 1.242 8.534 7.924 10.777 9.941 1.54 1.387 3.932 1.387 5.472 0 2.235-2.016 9.614-8.68 10.754-9.92 2.612-2.839 3.253-6.888 1.64-10.348-1.615-3.46-5.185-5.687-9.123-5.692z"/></g></svg>
