<svg xmlns="http://www.w3.org/2000/svg" width="56" height="55" viewBox="0 0 56 55"><path fill="#00D192" fill-rule="nonzero" d="M27.968 0C12.508.017-.012 12.337 0 27.52.012 42.706 12.55 55.007 28.01 55 43.47 54.994 56 42.684 56 27.5c-.002-7.298-2.957-14.297-8.214-19.454C42.528 2.888 35.399-.006 27.968 0zm0 48.118C16.373 48.107 6.982 38.868 6.99 27.48c.008-11.388 9.412-20.615 21.007-20.61 11.596.003 20.993 9.236 20.993 20.624-.011 11.395-9.418 20.628-21.02 20.632v-.007zm10.51-27.5c-1.932.002-3.497 1.542-3.496 3.44.002 1.898 1.569 3.436 3.502 3.435 1.932 0 3.498-1.54 3.498-3.437-.005-1.897-1.572-3.431-3.503-3.431v-.007zm-21.024 0c-1.932.002-3.498 1.542-3.496 3.44.001 1.898 1.568 3.436 3.5 3.435 1.933 0 3.5-1.54 3.5-3.437-.006-1.897-1.573-3.431-3.504-3.431v-.007zm10.514 6.875c-3.758.25-6.751 3.185-7.01 6.875 0 3.438 3.14 3.438 7.01 3.438 3.87 0 7.007 0 7.007-3.438-.26-3.687-3.252-6.62-7.007-6.868v-.007z"/></svg>
