<svg width="22" height="26" viewBox="0 0 22 26" fill="none" xmlns="http://www.w3.org/2000/svg">
<mask id="path-1-inside-1_1398_2532" fill="white">
<path d="M2.58652 8.14833C2.58652 3.64813 6.23465 0 10.7348 0C15.235 0 18.8832 3.64813 18.8832 8.14833V14.2803L21.6667 18.4167L20.5833 20.5833H1.08333L0 18.4167L2.58652 14.2803V8.14833Z"/>
</mask>
<path d="M20.5833 20.5833V22.5833H21.8194L22.3722 21.4778L20.5833 20.5833ZM1.08333 20.5833L-0.705521 21.4778L-0.152735 22.5833H1.08333V20.5833ZM2.58652 14.2803L4.28228 15.3407L4.58652 14.8541V14.2803H2.58652ZM18.8832 14.2803H16.8832V14.8906L17.2239 15.3969L18.8832 14.2803ZM0 18.4167L-1.69576 17.3563L-2.29061 18.3076L-1.78885 19.3111L0 18.4167ZM21.6667 18.4167L23.4555 19.3111L23.9772 18.2678L23.326 17.3001L21.6667 18.4167ZM20.5833 18.5833H1.08333V22.5833H20.5833V18.5833ZM4.58652 14.2803V8.14833H0.586523V14.2803H4.58652ZM16.8832 8.14833V14.2803H20.8832V8.14833H16.8832ZM2.87219 19.6889L1.78885 17.5222L-1.78885 19.3111L-0.705521 21.4778L2.87219 19.6889ZM1.69576 19.477L4.28228 15.3407L0.890765 13.2199L-1.69576 17.3563L1.69576 19.477ZM17.2239 15.3969L20.0074 19.5333L23.326 17.3001L20.5425 13.1637L17.2239 15.3969ZM19.8778 17.5222L18.7945 19.6889L22.3722 21.4778L23.4555 19.3111L19.8778 17.5222ZM10.7348 2C14.1305 2 16.8832 4.7527 16.8832 8.14833H20.8832C20.8832 2.54356 16.3396 -2 10.7348 -2V2ZM10.7348 -2C5.13008 -2 0.586523 2.54356 0.586523 8.14833H4.58652C4.58652 4.7527 7.33922 2 10.7348 2V-2Z" fill="#BDBFC1" mask="url(#path-1-inside-1_1398_2532)"/>
<path fill-rule="evenodd" clip-rule="evenodd" d="M5.13281 22.75C6.21755 24.6601 8.40963 25.9167 10.8336 25.9167C13.2575 25.9167 15.4496 24.6601 16.5343 22.75H13.9898C13.2036 23.4607 12.1014 23.9167 10.8336 23.9167C9.56575 23.9167 8.46355 23.4607 7.67733 22.75H5.13281Z" fill="#BDBFC1"/>
</svg>
