<svg xmlns="http://www.w3.org/2000/svg" width="15" height="17" viewBox="0 0 15 17"><path fill="#00D192" fill-rule="evenodd" d="M9.643 2.434V4.69a5.356 5.356 0 0 1 1.645 1.115 5.255 5.255 0 0 1 1.57 3.756 5.256 5.256 0 0 1-1.57 3.757A5.345 5.345 0 0 1 7.5 14.875a5.345 5.345 0 0 1-3.788-1.556 5.256 5.256 0 0 1-1.57-3.757c0-1.419.558-2.753 1.57-3.756a5.355 5.355 0 0 1 1.645-1.115V2.434C2.26 3.348 0 6.194 0 9.562 0 13.67 3.358 17 7.5 17c4.142 0 7.5-3.33 7.5-7.438 0-3.369-2.26-6.214-5.357-7.128zM6.429 0H8.57v8.5H6.43V0z"/></svg>
