<svg xmlns="http://www.w3.org/2000/svg" viewBox="0 0 56 56"><path fill="#00D192" fill-rule="evenodd" d="M48.995 25.099c.041-10.365-7.315-19.284-17.496-21.214V3.5a3.5 3.5 0 1 0-6.998 0v.315C14.41 5.53 7.024 14.264 7.005 24.5v.599a10.5 10.5 0 0 0 3.5 20.401h6.997c0 5.799 4.7 10.5 10.498 10.5 5.798 0 10.498-4.701 10.498-10.5h6.998a10.5 10.5 0 0 0 3.5-20.401zM28 49a3.5 3.5 0 0 1-3.5-3.5h7A3.5 3.5 0 0 1 28 49zm17.496-10.5H10.504a3.5 3.5 0 0 1 0-7h3.5v-7c0-7.732 6.266-14 13.996-14 .455 0 .913.021 1.375.066 7.204.626 12.707 6.702 12.622 13.934v7h3.499a3.5 3.5 0 0 1 0 7z"/></svg>
