<svg xmlns="http://www.w3.org/2000/svg" width="16" height="16.064" viewBox="0 0 16 16.064">
  <path id="website" d="M201.06,194.769a7.938,7.938,0,1,0-13.247-8.716c-.012.014-.026.022-.036.036a.475.475,0,0,0-.03.073,7.885,7.885,0,0,0,.248,8.607v.018c0,.006.02.018.028.03a7.917,7.917,0,0,0,12.963.044.479.479,0,0,0,.06-.071l.014-.02Zm-.6-.921h0a11.832,11.832,0,0,0-3.088-1.242,22.226,22.226,0,0,0,.127-2.336c0-.621-.028-1.242-.079-1.852a11.822,11.822,0,0,0,3.255-1.358,6.889,6.889,0,0,1-.21,6.781Zm-5.938,3.368c-.6,0-1.363-1.427-1.748-3.824a10.6,10.6,0,0,1,3.495,0c-.383,2.4-1.151,3.824-1.746,3.824Zm0-4.961a11.943,11.943,0,0,0-1.877.153,20.952,20.952,0,0,1-.107-2.138c0-.579.024-1.127.064-1.647h0a11.7,11.7,0,0,0,3.842,0c.04.52.064,1.068.064,1.649h0a20.948,20.948,0,0,1-.107,2.138,11.963,11.963,0,0,0-1.877-.155Zm0-8.931c.625,0,1.467,1.619,1.818,4.308h0a10.615,10.615,0,0,1-3.636,0c.351-2.689,1.193-4.308,1.818-4.308Zm5.63,2.9a10.83,10.83,0,0,1-2.838,1.2,10.737,10.737,0,0,0-1.151-3.894h0a6.946,6.946,0,0,1,3.989,2.691Zm-7.274-2.7a10.713,10.713,0,0,0-1.151,3.892h0a10.822,10.822,0,0,1-2.838-1.2,6.947,6.947,0,0,1,3.989-2.689Zm-4.509,3.538a11.812,11.812,0,0,0,3.255,1.358c-.05.607-.079,1.229-.079,1.852a22.172,22.172,0,0,0,.123,2.338,11.834,11.834,0,0,0-3.088,1.234,6.889,6.889,0,0,1-.21-6.781Zm.782,7.605a10.832,10.832,0,0,1,2.651-1.07,10.034,10.034,0,0,0,1.078,3.415h0a6.944,6.944,0,0,1-3.731-2.346Zm7.013,2.352a10,10,0,0,0,1.078-3.415,10.837,10.837,0,0,1,2.651,1.07,6.946,6.946,0,0,1-3.729,2.346Z" transform="translate(-186.59 -182.147)" fill="#00d192"/>
</svg>
