<svg xmlns="http://www.w3.org/2000/svg" width="18" height="13" viewBox="0 0 18 13">
    <path fill="#483EE8" fill-rule="nonzero" d="M9 3.25c-1.37-.003-2.606.787-3.132 2.001a3.156 3.156 0 0 0 .729 3.544c.967.931 2.423 1.21 3.689.708 1.265-.502 2.09-1.688 2.09-3.003C12.374 4.71 10.866 3.257 9 3.25zm0 4.333c-.623 0-1.128-.485-1.128-1.083S8.377 5.417 9 5.417c.623 0 1.128.485 1.128 1.083S9.623 7.583 9 7.583zm8.921-1.486C17.815 5.85 15.317 0 9.001 0 2.682 0 .184 5.85.08 6.097a1.044 1.044 0 0 0 0 .805C.18 7.15 2.683 13 9 13c6.316 0 8.817-5.85 8.92-6.098a1.044 1.044 0 0 0-.003-.805h.003zm-8.92 4.736c-3.99 0-6.026-3.175-6.635-4.333C2.976 5.358 5.033 2.167 9 2.167c3.994 0 6.029 3.177 6.636 4.333-.612 1.14-2.67 4.333-6.636 4.333z"/>
</svg>
