<svg xmlns="http://www.w3.org/2000/svg" width="16" height="16" viewBox="0 0 16 16">
    <g fill="none" fill-rule="evenodd">
        <path fill="none" d="M-20-20h56v56h-56z"/>
        <path fill="#483EE8" fill-rule="nonzero" d="M10.88 0a4.975 4.975 0 0 0-4.944 5c0 .36.037.718.109 1.07l-5.46 5.52a1.99 1.99 0 0 0 0 2.82l.99 1a1.943 1.943 0 0 0 2.789 0l.643-.64c.287.15.605.228.929.23.527 0 1.031-.213 1.4-.59l.989-1a2.01 2.01 0 0 0 .356-2.35l1.157-1.17A5 5 0 1 0 10.88 0zm.99 7.82a2.709 2.709 0 0 1-.99.18 2.9 2.9 0 0 1-1.541-.44L7.914 9l-1.978 2 .989 1-.99 1-.988-1-1.978 2-.99-1 4.946-5L8.35 6.56A2.979 2.979 0 0 1 8.092 4a2.939 2.939 0 0 1 2.789-2 3 3 0 0 1 .989 5.82zM10.88 4a1 1 0 1 0-.021 2 1 1 0 0 0 .022-2z"/>
    </g>
</svg>
