<svg xmlns="http://www.w3.org/2000/svg" width="18" height="19" viewBox="0 0 18 19">
    <path fill="#A39EF3" fill-rule="nonzero" d="M10.453 12.716c-.27.136-.559.234-.858.29a3.281 3.281 0 0 1-.597.06 2.982 2.982 0 0 1-1.125-.213c-.958-.359-1.71-1.153-2.047-2.161a3.453 3.453 0 0 1-.203-1.194 3.801 3.801 0 0 1 .33-1.532L4.58 6.516c-.205.178-.4.368-.584.569a4.168 4.168 0 0 0-.214.25c-.179.208-.348.426-.506.653l-.202.285c-.184.265-.331.503-.455.716-.101.202-.191.37-.258.511.984 2.206 2.823 3.863 5.05 4.548.427.114.865.177 1.306.19.093.01.187.014.28.012a.963.963 0 0 0 .192-.012c.347 0 .694-.032 1.036-.095.123-.036.245-.06.36-.095a4.186 4.186 0 0 0 .848-.298l-.98-1.034zm2.691 2.84a7.736 7.736 0 0 1-.755.376c-.106.05-.215.094-.326.13-.27.107-.562.202-.856.285h-.011a3.293 3.293 0 0 1-.382.083 6.41 6.41 0 0 1-.99.143c-.269.034-.54.05-.81.048-6.306 0-8.82-6.413-8.922-6.686a1.31 1.31 0 0 1 0-.879c.258-.62.567-1.216.923-1.781.14-.243.291-.477.455-.7.057-.095.136-.19.203-.285.158-.214.326-.428.517-.642.068-.083.135-.166.214-.249.175-.19.365-.392.567-.581L.328 2.028a1.237 1.237 0 0 1 0-1.679C.538.126.825 0 1.125 0c.299 0 .585.126.796.35l15.75 16.623a1.237 1.237 0 0 1 0 1.678 1.09 1.09 0 0 1-1.596 0l-2.93-3.094zm4.775-6.495a1.31 1.31 0 0 1 0 .879 12.09 12.09 0 0 1-1.384 2.482l-1.619-1.711c.269-.384.51-.789.72-1.21-.596-1.235-2.543-4.584-6.356-4.738L7.197 2.566a7.887 7.887 0 0 1 1.8-.19c6.307 0 8.821 6.412 8.922 6.685z"/>
</svg>
