<svg xmlns="http://www.w3.org/2000/svg" width="14" height="16" viewBox="0 0 14 16">
    <path fill="#483EE8" fill-rule="nonzero" d="M12.968 9.969a10.045 10.045 0 0 0-2.526-1.355A4.98 4.98 0 0 0 7.587.038a4.584 4.584 0 0 0-1.178 0 4.981 4.981 0 0 0-2.856 8.576c-.902.329-1.752.785-2.525 1.355a2.52 2.52 0 0 0 0 4.062 10.035 10.035 0 0 0 11.94 0 2.522 2.522 0 0 0 0-4.062zM3.991 5a2.99 2.99 0 0 1 2.7-2.98c.207-.027.416-.027.622 0A3 3 0 1 1 3.991 5zm7.783 7.424a8.025 8.025 0 0 1-9.552 0 .523.523 0 0 1 0-.849 8.029 8.029 0 0 1 9.552 0 .524.524 0 0 1 0 .849z"/>
</svg>
