<svg xmlns="http://www.w3.org/2000/svg" width="16" height="16" viewBox="0 0 16 16">
    <g fill="none" fill-rule="evenodd">
        <path fill="#FFF" fill-opacity="0" d="M-20-21h56v56h-56z"/>
        <path fill="#483EE8" fill-rule="nonzero" d="M6.967 14.017a8.114 8.114 0 0 1-4.754-1.585.512.512 0 0 1 0-.837 7.959 7.959 0 0 1 4.764-1.575c.333 0 .666-.033.993-.1.114-.022.218-.068.328-.1.203-.048.404-.11.6-.185.12-.05.227-.12.342-.178.172-.081.339-.171.5-.27.093-.062.173-.139.262-.206.15-.105.293-.217.431-.337l-.009-.01a4.986 4.986 0 0 0 .33-6.934 5.022 5.022 0 0 0-6.94-.57 4.987 4.987 0 0 0-.812 6.896c.024.032.056.058.08.09.141.183.295.356.46.519l-.01.009A9.707 9.707 0 0 0 1.02 9.989a2.518 2.518 0 0 0 0 4.047A9.947 9.947 0 0 0 6.955 16a1.011 1.011 0 0 0 1.03-.997.986.986 0 0 0-1.018-.986zM4 5a3 3 0 1 1 6 0 3 3 0 0 1-6 0zm11 7h-1v-1a1 1 0 0 0-2 0v1h-1a1 1 0 0 0 0 2h1v1a1 1 0 0 0 2 0v-1h1a1 1 0 0 0 0-2z"/>
    </g>
</svg>
